<svg width="36" height="24" viewBox="0 0 36 24" fill="none" xmlns="http://www.w3.org/2000/svg">
<path d="M0 9V20C0 22.2062 1.79375 24 4 24H14C16.2062 24 18 22.2062 18 20V9C18 4.03125 13.9688 0 9 0C4.03125 0 0 4.03125 0 9ZM4 9C4 8.45 4.45 8 5 8H13C13.55 8 14 8.45 14 9C14 9.55 13.55 10 13 10H5C4.45 10 4 9.55 4 9ZM20 9V20C20 21.5375 19.425 22.9375 18.475 24H32C34.2062 24 36 22.2062 36 20V9C36 4.03125 31.9688 0 27 0H15.325C18.15 1.99375 20 5.28125 20 9ZM24 9C24 8.45 24.45 8 25 8H29H31C31.55 8 32 8.45 32 9V13C32 13.55 31.55 14 31 14H29C28.45 14 28 13.55 28 13V10H25C24.45 10 24 9.55 24 9Z" fill="white"/>
</svg>
