<svg width="32" height="33" viewBox="0 0 32 33" fill="none" xmlns="http://www.w3.org/2000/svg">
<path d="M12.95 0.031303C14.1929 0.238446 15.0357 1.41702 14.8286 2.65987L14.1286 6.85987H20.9214L21.7429 1.90987C21.95 0.667017 23.1286 -0.17584 24.3714 0.031303C25.6143 0.238446 26.4571 1.41702 26.25 2.65987L25.5571 6.85987H29.7143C30.9786 6.85987 32 7.8813 32 9.14559C32 10.4099 30.9786 11.4313 29.7143 11.4313H24.7929L23.2714 20.5742H27.4286C28.6929 20.5742 29.7143 21.5956 29.7143 22.8599C29.7143 24.1242 28.6929 25.1456 27.4286 25.1456H22.5071L21.6857 30.0956C21.4786 31.3384 20.3 32.1813 19.0571 31.9742C17.8143 31.767 16.9714 30.5884 17.1786 29.3456L17.8786 25.1527H11.0786L10.2571 30.1027C10.05 31.3456 8.87143 32.1884 7.62857 31.9813C6.38572 31.7742 5.54286 30.5956 5.75 29.3527L6.44286 25.1456H2.28571C1.02143 25.1456 0 24.1242 0 22.8599C0 21.5956 1.02143 20.5742 2.28571 20.5742H7.20714L8.72857 11.4313H4.57143C3.30714 11.4313 2.28571 10.4099 2.28571 9.14559C2.28571 7.8813 3.30714 6.85987 4.57143 6.85987H9.49286L10.3143 1.90987C10.5214 0.667017 11.7 -0.17584 12.9429 0.031303H12.95ZM13.3643 11.4313L11.8429 20.5742H18.6357L20.1571 11.4313H13.3643Z" fill="white"/>
</svg>
