<svg width="32" height="26" viewBox="0 0 32 26" fill="none" xmlns="http://www.w3.org/2000/svg">
<path d="M12.4067 17.6467C12.4067 19.04 11.68 21.32 9.96 21.32C8.24 21.32 7.51333 19.04 7.51333 17.6467C7.51333 16.2533 8.24 13.9733 9.96 13.9733C11.68 13.9733 12.4067 16.2533 12.4067 17.6467ZM32 14.28C32 16.4067 31.7867 18.66 30.8333 20.6133C28.3067 25.72 21.36 25.6 16.3867 25.6C11.3333 25.6 3.97333 25.78 1.34667 20.6133C0.373333 18.68 0 16.4067 0 14.28C0 11.4867 0.926667 8.84667 2.76667 6.70667C2.42 5.65333 2.25333 4.54667 2.25333 3.45333C2.25333 2.02 2.58 1.3 3.22667 0C6.24667 0 8.18 0.6 10.48 2.4C12.4133 1.94 14.4 1.73333 16.3933 1.73333C18.1933 1.73333 20.0067 1.92667 21.7533 2.34667C24.02 0.566666 25.9533 0 28.94 0C29.5933 1.3 29.9133 2.02 29.9133 3.45333C29.9133 4.54667 29.74 5.63333 29.4 6.66667C31.2333 8.82667 32 11.4867 32 14.28ZM27.7133 17.6467C27.7133 14.72 25.9333 12.14 22.8133 12.14C21.5533 12.14 20.3467 12.3667 19.08 12.54C18.0867 12.6933 17.0933 12.7533 16.0733 12.7533C15.06 12.7533 14.0667 12.6933 13.0667 12.54C11.82 12.3667 10.6 12.14 9.33333 12.14C6.21333 12.14 4.43333 14.72 4.43333 17.6467C4.43333 23.5 9.79333 24.4 14.46 24.4H17.6733C22.36 24.4 27.7133 23.5067 27.7133 17.6467ZM22.2067 13.9733C20.4867 13.9733 19.76 16.2533 19.76 17.6467C19.76 19.04 20.4867 21.32 22.2067 21.32C23.9267 21.32 24.6533 19.04 24.6533 17.6467C24.6533 16.2533 23.9267 13.9733 22.2067 13.9733Z" fill="white"/>
</svg>
