<svg width="25" height="29" viewBox="0 0 25 29" fill="none" xmlns="http://www.w3.org/2000/svg">
<path d="M23.2143 1.8125H1.78013C0.797991 1.8125 0 2.63379 0 3.64199V25.358C0 26.3662 0.797991 27.1875 1.78013 27.1875H23.2143C24.1964 27.1875 25 26.3662 25 25.358V3.64199C25 2.63379 24.1964 1.8125 23.2143 1.8125ZM7.5558 23.5625H3.85045V11.4527H7.56138V23.5625H7.5558ZM5.70312 9.79883C4.51451 9.79883 3.55469 8.81895 3.55469 7.61816C3.55469 6.41738 4.51451 5.4375 5.70312 5.4375C6.88616 5.4375 7.85156 6.41738 7.85156 7.61816C7.85156 8.82461 6.89174 9.79883 5.70312 9.79883ZM21.4453 23.5625H17.74V17.6719C17.74 16.2672 17.7121 14.4604 15.8147 14.4604C13.8839 14.4604 13.5882 15.9896 13.5882 17.5699V23.5625H9.88281V11.4527H13.4375V13.1066H13.4877C13.9844 12.1551 15.1953 11.1525 16.9978 11.1525C20.7478 11.1525 21.4453 13.6617 21.4453 16.9242V23.5625Z" fill="white"/>
</svg>
