<svg width="40" height="59" viewBox="0 0 40 59" fill="none" xmlns="http://www.w3.org/2000/svg">
<path d="M20.188 57.3738C22.0514 57.3738 23.562 55.8572 23.562 53.9865C23.562 52.1157 22.0514 50.5991 20.188 50.5991C18.3246 50.5991 16.814 52.1157 16.814 53.9865C16.814 55.8572 18.3246 57.3738 20.188 57.3738Z" fill="#BCE6F3"/>
<path d="M12.452 46.2219C12.4578 48.2796 13.2745 50.2514 14.7235 51.7066C16.1726 53.1618 18.1364 53.9821 20.186 53.9885C22.236 53.9826 24.2003 53.1625 25.6498 51.7073C27.0993 50.252 27.9162 48.2799 27.922 46.2219V41.9069H12.452V46.2219Z" fill="#E6E6E6"/>
<path d="M27.124 46.2219V42.7101H23.924L16.652 52.2014C17.7043 52.832 18.9043 53.1712 20.1297 53.1844C21.3551 53.1976 22.5621 52.8843 23.6276 52.2765C24.6931 51.6687 25.579 50.7881 26.195 49.7245C26.8109 48.6608 27.1349 47.4522 27.134 46.2219H27.124Z" fill="#E6E6E6"/>
<path d="M39.504 20.079C39.4522 14.9703 37.3945 10.0885 33.7778 6.49433C30.1612 2.90016 25.2779 0.884033 20.189 0.884033C15.1002 0.884033 10.2169 2.90016 6.60022 6.49433C2.98358 10.0885 0.925805 14.9703 0.874023 20.079C0.874023 36.2206 12.528 35.7146 12.454 37.6903V41.9069H27.924V37.6903C27.9 34.5962 39.504 36.8691 39.504 20.079Z" fill="#6F1AB6"/>
<path d="M38.704 20.079C38.7061 15.2979 36.8665 10.7011 33.57 7.25055L11.57 35.9093C12.588 36.3912 13.266 36.851 13.242 37.7165V41.1038H27.114V37.6904C27.102 36.2306 28.492 35.6383 30.102 34.9516C33.534 33.4938 38.704 31.2892 38.704 20.079Z" fill="#6F1AB6"/>
<g style="mix-blend-mode:multiply">
<path d="M28.142 33.54C27.9748 33.5389 27.8137 33.4766 27.6891 33.3647C27.5644 33.2527 27.4848 33.099 27.4651 32.9322C27.4455 32.7655 27.4872 32.5973 27.5824 32.4593C27.6775 32.3213 27.8197 32.2229 27.982 32.1827C29.878 31.7208 31.944 30.0523 33.508 27.7171C34.966 25.5385 35.684 23.2013 35.338 21.7636C35.2953 21.5861 35.3246 21.3987 35.4195 21.2428C35.5144 21.0869 35.6671 20.9753 35.844 20.9324C36.0209 20.8895 36.2075 20.9189 36.3628 21.0142C36.5181 21.1095 36.6293 21.2628 36.672 21.4404C37.11 23.2636 36.334 25.9622 34.646 28.4841C32.87 31.1385 30.558 32.9738 28.304 33.5199C28.2511 33.5335 28.1966 33.5403 28.142 33.54Z" fill="#00B0BC"/>
</g>
<g style="mix-blend-mode:screen">
<path d="M4.968 17.9888C4.81147 17.9887 4.65967 17.9349 4.5378 17.8363C4.41593 17.7377 4.33131 17.6002 4.29799 17.4467C3.89799 15.6155 4.73799 12.9329 6.48399 10.4511C8.31999 7.84086 10.684 6.05784 12.938 5.5639C13.027 5.54174 13.1196 5.53774 13.2102 5.55212C13.3008 5.56651 13.3876 5.59898 13.4655 5.64763C13.5434 5.69629 13.6107 5.76013 13.6636 5.83538C13.7165 5.91063 13.7538 5.99576 13.7733 6.08574C13.7928 6.17572 13.7942 6.26872 13.7773 6.35923C13.7604 6.44974 13.7256 6.53594 13.6749 6.61271C13.6243 6.68949 13.5588 6.75529 13.4824 6.80621C13.406 6.85713 13.3201 6.89215 13.23 6.90919C11.324 7.32483 9.23 8.94521 7.604 11.2443C6.096 13.3887 5.32399 15.7098 5.63799 17.1555C5.65711 17.2437 5.65872 17.3349 5.64272 17.4237C5.62672 17.5125 5.59344 17.5973 5.54477 17.6732C5.4961 17.7491 5.433 17.8146 5.35909 17.866C5.28517 17.9174 5.20188 17.9537 5.11399 17.9727C5.06614 17.9839 5.01713 17.9893 4.968 17.9888Z" fill="#6F1AB6"/>
</g>
<g style="mix-blend-mode:screen">
<path d="M19.82 5.96749C19.7199 5.96684 19.6211 5.94495 19.53 5.90324C19.046 5.67635 17.476 5.80084 16.57 5.95745C16.4805 5.97461 16.3884 5.97368 16.2992 5.95472C16.21 5.93575 16.1255 5.89913 16.0506 5.84699C15.9756 5.79485 15.9118 5.72824 15.8628 5.65105C15.8138 5.57386 15.7807 5.48764 15.7653 5.39744C15.7498 5.30723 15.7525 5.21485 15.773 5.12568C15.7936 5.03651 15.8316 4.95235 15.885 4.87812C15.9383 4.80388 16.0058 4.74106 16.0836 4.69332C16.1614 4.64559 16.2479 4.6139 16.338 4.60011C16.784 4.52381 19.062 4.1644 20.11 4.65433C20.2517 4.72049 20.3666 4.83323 20.4358 4.97389C20.505 5.11455 20.5242 5.27471 20.4904 5.42786C20.4566 5.58101 20.3717 5.71799 20.2498 5.81611C20.1279 5.91424 19.9763 5.96764 19.82 5.96749Z" fill="#6F1AB6"/>
</g>
<path d="M30.052 46.4528H9.95199C9.77005 46.4528 9.59557 46.3803 9.46692 46.2511C9.33827 46.122 9.26599 45.9468 9.26599 45.7641C9.26599 45.5815 9.33827 45.4063 9.46692 45.2771C9.59557 45.148 9.77005 45.0754 9.95199 45.0754H30.052C30.2339 45.0754 30.4084 45.148 30.5371 45.2771C30.6657 45.4063 30.738 45.5815 30.738 45.7641C30.738 45.9468 30.6657 46.122 30.5371 46.2511C30.4084 46.3803 30.2339 46.4528 30.052 46.4528Z" fill="#182D46"/>
<path d="M28.23 50.4204H11.772C11.5901 50.4204 11.4156 50.3479 11.2869 50.2187C11.1583 50.0896 11.086 49.9144 11.086 49.7317C11.086 49.5491 11.1583 49.3739 11.2869 49.2447C11.4156 49.1156 11.5901 49.043 11.772 49.043H28.23C28.4119 49.043 28.5864 49.1156 28.7151 49.2447C28.8437 49.3739 28.916 49.5491 28.916 49.7317C28.916 49.9144 28.8437 50.0896 28.7151 50.2187C28.5864 50.3479 28.4119 50.4204 28.23 50.4204Z" fill="#182D46"/>
<path d="M20 58.0645C19.3909 58.0652 18.7895 57.9281 18.2403 57.6634C17.6912 57.3987 17.2085 57.0133 16.8281 56.5357C16.4477 56.0581 16.1793 55.5006 16.0429 54.9046C15.9064 54.3086 15.9055 53.6894 16.04 53.093C16.0621 52.9921 16.1067 52.8976 16.1705 52.8166C16.2342 52.7355 16.3154 52.6701 16.408 52.6251C16.5015 52.5796 16.6041 52.556 16.708 52.556C16.8119 52.556 16.9145 52.5796 17.008 52.6251C17.9456 53.0716 18.9703 53.3032 20.008 53.3032C21.0457 53.3032 22.0705 53.0716 23.008 52.6251C23.101 52.5811 23.2026 52.5586 23.3054 52.5593C23.4082 52.56 23.5095 52.5839 23.6019 52.6292C23.6942 52.6745 23.7752 52.7401 23.839 52.821C23.9027 52.902 23.9475 52.9963 23.97 53.097C24.1046 53.6936 24.1036 54.3129 23.9671 54.9091C23.8305 55.5052 23.562 56.0628 23.1813 56.5405C22.8007 57.0181 22.3177 57.4035 21.7684 57.6681C21.219 57.9326 20.6173 58.0695 20.008 58.0686L20 58.0645ZM17.322 54.2355C17.3852 54.9046 17.6946 55.526 18.1899 55.9783C18.6851 56.4306 19.3305 56.6813 20 56.6813C20.6695 56.6813 21.315 56.4306 21.8102 55.9783C22.3054 55.526 22.6149 54.9046 22.678 54.2355C20.9405 54.8222 19.0595 54.8222 17.322 54.2355Z" fill="#182D46"/>
<path d="M20 54.6752C17.7677 54.6725 15.6276 53.7811 14.0491 52.1964C12.4706 50.6116 11.5827 48.4631 11.58 46.2219V41.9069C11.58 41.7246 11.652 41.5498 11.7802 41.4207C11.9085 41.2916 12.0824 41.2188 12.264 41.2182H27.736C27.9179 41.2182 28.0924 41.2908 28.2211 41.4199C28.3497 41.5491 28.422 41.7243 28.422 41.9069V46.2219C28.4194 48.4634 27.5311 50.6123 25.9522 52.1971C24.3733 53.7818 22.2327 54.6731 20 54.6752ZM12.95 42.5896V46.2159C12.95 48.0931 13.6928 49.8933 15.0149 51.2207C16.337 52.5481 18.1302 53.2938 20 53.2938C21.8698 53.2938 23.663 52.5481 24.9851 51.2207C26.3073 49.8933 27.05 48.0931 27.05 46.2159V42.5896H12.95Z" fill="#182D46"/>
<path d="M27.736 42.5896H12.264C12.0824 42.5891 11.9084 42.5163 11.7802 42.3872C11.652 42.2581 11.58 42.0832 11.58 41.9009V37.7325C11.406 37.5317 10.666 37.2064 10.066 36.9414C8.392 36.1944 5.86601 35.068 3.75801 32.5642C1.26401 29.5985 0 25.398 0 20.079C0 14.7537 2.10713 9.64656 5.85786 5.88101C9.60859 2.11546 14.6957 0 20 0C25.3043 0 30.3914 2.11546 34.1421 5.88101C37.8929 9.64656 40 14.7537 40 20.079C40 25.41 38.882 29.3696 36.582 32.1807C34.632 34.558 32.252 35.582 30.504 36.325C29.212 36.8771 28.418 37.2365 28.422 37.6843V41.9009C28.422 42.0836 28.3497 42.2587 28.2211 42.3879C28.0924 42.5171 27.9179 42.5896 27.736 42.5896ZM12.95 41.2122H27.052V37.6903C27.052 36.3069 28.398 35.7286 29.97 35.058C33.42 33.5862 38.632 31.3654 38.632 20.079C38.5812 15.1524 36.5961 10.4448 33.108 6.97903C29.6199 3.51325 24.9106 1.5692 20.003 1.5692C15.0955 1.5692 10.3861 3.51325 6.89802 6.97903C3.40993 10.4448 1.42485 15.1524 1.374 20.079C1.374 31.5622 7.392 34.2428 10.624 35.6824C11.99 36.2848 12.98 36.7306 12.952 37.7024L12.95 41.2122Z" fill="#182D46"/>
<path d="M23.502 42.5896C23.4488 42.5895 23.3958 42.5834 23.344 42.5715C23.167 42.5291 23.014 42.418 22.9185 42.2626C22.8229 42.1072 22.7925 41.9201 22.834 41.7423C24.882 33.0019 26.004 28.3275 27.156 25.8799C27.772 24.5727 28.432 23.8137 29.298 23.4182C30.098 23.0527 30.96 23.0347 32.178 23.127C32.3582 23.1424 32.5251 23.2286 32.6424 23.3669C32.7596 23.5052 32.8177 23.6844 32.804 23.8655C32.7903 24.0466 32.7059 24.2149 32.5692 24.3338C32.4325 24.4527 32.2545 24.5126 32.074 24.5004C30.106 24.3498 29.334 24.4763 28.396 26.4682C27.304 28.7853 26.196 33.4075 24.17 42.0535C24.1356 42.2056 24.0507 42.3415 23.9294 42.4389C23.808 42.5363 23.6573 42.5894 23.502 42.5896Z" fill="#D9D9D9"/>
<path d="M16.134 42.0274C15.9651 42.0274 15.8022 41.9646 15.6767 41.8511C15.5511 41.7377 15.4718 41.5816 15.454 41.413C15.454 41.3708 14.996 37.1582 14.066 32.6907C12.466 25.0225 10.818 22.9624 9.97802 22.4162C9.83263 22.3091 9.66373 22.2385 9.48553 22.2106C9.30733 22.1826 9.12504 22.1981 8.95402 22.2556C8.78402 22.3031 8.60232 22.283 8.44668 22.1995C8.29105 22.116 8.17346 21.9755 8.11835 21.8072C8.06324 21.6389 8.07486 21.4557 8.15079 21.2958C8.22671 21.1359 8.36109 21.0115 8.52602 20.9484C8.89169 20.8258 9.28073 20.7901 9.6625 20.8441C10.0443 20.8981 10.4083 21.0403 10.726 21.2597C11.776 21.9424 12.712 23.4061 13.584 25.7353C14.3591 27.9145 14.9708 30.1488 15.414 32.4196C16.358 36.9514 16.814 41.2242 16.814 41.2664C16.8331 41.448 16.7795 41.6297 16.6651 41.7717C16.5507 41.9136 16.3849 42.0042 16.204 42.0234C16.1808 42.0265 16.1574 42.0279 16.134 42.0274Z" fill="#D9D9D9"/>
<path d="M15.98 12.7642C15.964 12.7984 15.964 12.8144 15.946 12.8305V12.8486C15.9485 12.8776 15.943 12.9068 15.93 12.9329C15.9394 13.0038 15.9215 13.0756 15.88 13.1337C15.8352 13.1872 15.7773 13.228 15.712 13.2521H15.628C15.612 13.2521 15.596 13.2521 15.596 13.2682C15.596 13.2843 15.578 13.2682 15.562 13.2843C15.5485 13.2965 15.5327 13.3058 15.5155 13.3116C15.4983 13.3175 15.4801 13.3198 15.462 13.3184H15.452C15.4179 13.3208 15.3837 13.3153 15.352 13.3023H15.286C15.1925 13.3232 15.1023 13.357 15.018 13.4027C14.9862 13.4329 14.9581 13.4665 14.934 13.5031C14.9037 13.5508 14.8635 13.5912 14.816 13.6216C14.7977 13.6428 14.7752 13.6599 14.75 13.6718H14.734C14.716 13.6879 14.7 13.7059 14.7 13.722L14.65 13.7722C14.6261 13.7997 14.5977 13.8228 14.566 13.8405L14.516 13.8907V13.9067C14.498 13.9228 14.498 13.9569 14.482 13.975C14.466 13.9931 14.432 14.0071 14.416 14.0252L14.398 14.0413C14.382 14.0573 14.382 14.0914 14.364 14.1075C14.3391 14.1208 14.3167 14.1385 14.298 14.1597L14.282 14.1758C14.282 14.1918 14.264 14.2099 14.264 14.226C14.264 14.242 14.248 14.2942 14.23 14.3103C14.2186 14.3359 14.2015 14.3586 14.18 14.3766C14.1803 14.3788 14.1801 14.3811 14.1794 14.3833C14.1787 14.3855 14.1776 14.3875 14.1761 14.3893C14.1746 14.391 14.1727 14.3923 14.1706 14.3933C14.1685 14.3942 14.1663 14.3947 14.164 14.3946V14.495C14.164 14.5452 14.148 14.5794 14.148 14.6135C14.1317 14.6386 14.1202 14.6665 14.114 14.6958C14.098 14.6958 14.098 14.7139 14.098 14.7139C14.0835 14.7453 14.0773 14.7798 14.08 14.8143C14.08 14.8304 14.064 14.8484 14.064 14.8645V14.8986C14.0489 14.9709 14.0376 15.044 14.03 15.1175C14.014 15.1335 14.014 15.1677 13.996 15.1838V15.3183C13.9834 15.3536 13.9666 15.3874 13.946 15.4187C13.93 15.4367 13.93 15.4367 13.93 15.4528C13.9158 15.4969 13.9044 15.5418 13.896 15.5873C13.8986 15.6381 13.8932 15.6889 13.88 15.7379C13.8617 15.7565 13.8498 15.7804 13.846 15.8062C13.8439 15.8062 13.8418 15.8066 13.8399 15.8074C13.8379 15.8082 13.8362 15.8094 13.8347 15.8109C13.8332 15.8124 13.832 15.8142 13.8312 15.8161C13.8304 15.8181 13.83 15.8202 13.83 15.8223V15.8383C13.83 15.8564 13.846 15.8725 13.83 15.9066C13.8327 15.9302 13.8263 15.9539 13.812 15.9729C13.8107 15.9857 13.8051 15.9978 13.796 16.007V16.1255C13.78 16.1415 13.78 16.1757 13.762 16.1917C13.7529 16.2009 13.7473 16.213 13.746 16.2259V16.3945C13.728 16.4608 13.712 16.529 13.696 16.5953C13.6762 16.6432 13.6647 16.6941 13.662 16.7459V16.78C13.6626 16.8038 13.6571 16.8273 13.646 16.8483C13.646 16.8804 13.628 16.8985 13.612 16.9306C13.6025 16.9398 13.5962 16.9518 13.594 16.9648V16.9808C13.594 16.9989 13.612 17.033 13.612 17.0491C13.594 17.1153 13.578 17.1676 13.562 17.2178C13.546 17.268 13.544 17.284 13.528 17.3182V17.4025C13.5304 17.4367 13.5249 17.4711 13.512 17.5029C13.512 17.5189 13.494 17.537 13.494 17.5531V17.6715C13.4934 17.7019 13.482 17.7311 13.462 17.7539C13.4604 17.7671 13.454 17.7792 13.444 17.788C13.4372 17.8158 13.4318 17.844 13.428 17.8723C13.428 17.9065 13.41 17.9386 13.41 17.9727C13.3734 18.0936 13.346 18.2171 13.328 18.3422C13.31 18.4265 13.276 18.5108 13.26 18.5952C13.26 18.6112 13.244 18.6454 13.244 18.6614L13.226 18.6795V18.7638C13.2027 18.949 13.1522 19.1297 13.076 19.2999C13.0698 19.386 13.053 19.471 13.026 19.5529C13.0229 19.5887 13.0112 19.6231 12.992 19.6533C12.9884 19.6817 12.983 19.7099 12.976 19.7377V19.8541C12.958 19.8883 12.942 19.9224 12.926 19.9565C12.908 19.9565 12.908 19.9726 12.908 19.9887C12.8938 20.0264 12.8883 20.0669 12.892 20.1071C12.8789 20.1452 12.8734 20.1854 12.876 20.2256C12.8637 20.2744 12.8404 20.3197 12.808 20.3581C12.808 20.3762 12.792 20.3922 12.774 20.4264C12.756 20.4605 12.758 20.4926 12.758 20.5268C12.758 20.5609 12.742 20.6111 12.742 20.6452C12.742 20.6794 12.708 20.7456 12.692 20.7958C12.662 20.8423 12.6391 20.8931 12.624 20.9464C12.624 20.9806 12.608 21.0147 12.608 21.0488C12.5956 21.1056 12.5789 21.1613 12.558 21.2155C12.558 21.2496 12.54 21.2657 12.524 21.2998C12.5064 21.3189 12.4946 21.3425 12.49 21.3681V21.4002C12.4923 21.4241 12.4867 21.4481 12.474 21.4685C12.4598 21.5083 12.4431 21.5472 12.424 21.5849C12.424 21.603 12.406 21.6191 12.39 21.6371V21.7536C12.3714 21.8114 12.3486 21.8677 12.322 21.9223C12.2978 21.9598 12.2758 21.9987 12.256 22.0387V22.1411C12.24 22.1733 12.222 22.1913 12.222 22.2235C12.222 22.2556 12.206 22.2576 12.19 22.2757V22.3259C12.172 22.358 12.172 22.4082 12.138 22.4423C12.104 22.4765 12.106 22.5106 12.088 22.5427C12.07 22.5748 12.038 22.6451 12.022 22.6953C12.006 22.7455 12.004 22.7616 11.988 22.7957C11.9772 22.8867 11.9427 22.9733 11.888 23.0467C11.8736 23.1406 11.8327 23.2284 11.77 23.2997C11.754 23.3499 11.72 23.384 11.704 23.4342C11.697 23.462 11.6916 23.4901 11.688 23.5185C11.6844 23.5592 11.6729 23.5988 11.654 23.635C11.6355 23.6805 11.6067 23.721 11.57 23.7535C11.542 23.783 11.519 23.8169 11.502 23.8539C11.4929 23.8631 11.4873 23.8751 11.486 23.888C11.4868 23.9111 11.4813 23.9341 11.47 23.9543C11.4654 23.9798 11.4536 24.0035 11.436 24.0225C11.42 24.0386 11.42 24.0567 11.402 24.0567V24.0888C11.386 24.1229 11.386 24.139 11.37 24.1731C11.3512 24.2042 11.3284 24.2326 11.302 24.2575L11.252 24.3177C11.2314 24.3433 11.2146 24.3717 11.202 24.402C11.1722 24.4692 11.1324 24.5315 11.084 24.5868C11.0703 24.6799 11.03 24.7671 10.968 24.8377C10.95 24.8377 10.95 24.8558 10.934 24.8558C10.918 24.8558 10.934 24.8899 10.918 24.8899C10.902 24.8899 10.9 24.9221 10.9 24.9401C10.866 24.9723 10.85 25.0064 10.816 25.0245C10.8002 25.0359 10.7874 25.051 10.7786 25.0685C10.7699 25.086 10.7656 25.1053 10.766 25.1249V25.1409L10.75 25.159C10.7203 25.1907 10.6867 25.2183 10.65 25.2413H10.632C10.616 25.2594 10.6 25.2755 10.6 25.2915C10.5829 25.3237 10.5598 25.3523 10.532 25.3759C10.516 25.3939 10.482 25.41 10.466 25.4261C10.466 25.4308 10.4641 25.4354 10.4607 25.4388C10.4574 25.4422 10.4528 25.4441 10.448 25.4441C10.432 25.4602 10.432 25.4602 10.432 25.4783C10.432 25.4963 10.414 25.5285 10.398 25.5445C10.382 25.5606 10.348 25.5947 10.332 25.5947C10.316 25.5947 10.298 25.6108 10.298 25.6289C10.298 25.6469 10.282 25.6449 10.264 25.663C10.246 25.6811 10.248 25.7132 10.214 25.7453C10.18 25.7774 10.148 25.7975 10.114 25.8136C10.0715 25.8294 10.0317 25.8518 9.99599 25.8798C9.99601 25.8886 9.9927 25.897 9.98675 25.9033C9.9808 25.9096 9.97266 25.9135 9.964 25.914L9.912 25.9642C9.89119 25.9898 9.86225 26.0076 9.83 26.0144C9.82126 26.0244 9.80915 26.0308 9.79599 26.0324C9.77799 26.0485 9.746 26.0646 9.728 26.0826C9.69257 26.131 9.64678 26.1708 9.594 26.1991C9.562 26.1991 9.544 26.1991 9.528 26.2172H9.494C9.45585 26.2309 9.42155 26.2536 9.394 26.2834C9.36 26.3015 9.344 26.3176 9.328 26.3176C9.24741 26.364 9.16312 26.4036 9.076 26.436H8.976C8.958 26.436 8.942 26.4521 8.908 26.4682C8.874 26.4842 8.858 26.5023 8.824 26.5184C8.742 26.5364 8.674 26.5364 8.59 26.5525C8.53419 26.5499 8.47828 26.5553 8.424 26.5686H8.39C8.374 26.5866 8.35599 26.5866 8.32199 26.5866H8.206C8.172 26.5866 8.156 26.5686 8.138 26.5686H8.12199C8.0893 26.5777 8.05582 26.5838 8.02199 26.5866H7.82199C7.76535 26.583 7.7095 26.5715 7.656 26.5525C7.61356 26.5337 7.56825 26.5221 7.52199 26.5184H7.404C7.3736 26.506 7.34528 26.4891 7.32 26.4682C7.31137 26.4594 7.30013 26.4538 7.288 26.4521H7.252C7.24301 26.4531 7.2339 26.4522 7.22528 26.4495C7.21666 26.4467 7.20873 26.4421 7.202 26.436C7.18916 26.4357 7.17657 26.4324 7.16515 26.4265C7.15372 26.4206 7.14376 26.4122 7.13599 26.4019H7.118C7.11181 26.395 7.104 26.3897 7.09527 26.3865C7.08654 26.3834 7.07717 26.3824 7.068 26.3838C7.02865 26.3866 6.98915 26.3811 6.952 26.3678C6.902 26.3336 6.85 26.2834 6.8 26.2493L6.78399 26.2332C6.78399 26.2172 6.768 26.2172 6.75 26.1991L6.65 26.0987C6.634 26.0826 6.634 26.0646 6.616 26.0485V26.0144C6.6 25.9983 6.566 25.9983 6.55 25.9822C6.534 25.9662 6.5 25.9642 6.482 25.9481C6.464 25.932 6.482 25.93 6.466 25.93C6.42229 25.896 6.38269 25.8569 6.34799 25.8136C6.33199 25.7795 6.332 25.7453 6.316 25.7132C6.3 25.6811 6.31599 25.663 6.29799 25.6449L6.282 25.6289C6.266 25.5947 6.232 25.5787 6.214 25.5445C6.196 25.5104 6.19799 25.4943 6.19799 25.4783C6.19799 25.4622 6.198 25.4441 6.182 25.4441C6.166 25.4441 6.16399 25.41 6.14799 25.3939C6.11844 25.3662 6.09554 25.3321 6.08099 25.2942C6.06644 25.2563 6.06063 25.2155 6.064 25.1751C6.048 25.1409 6.048 25.1068 6.03 25.0747C6.012 25.0425 6.03 25.0566 6.014 25.0566C5.998 25.0245 5.96399 25.0064 5.94799 24.9401V24.8217C5.94799 24.7875 5.96399 24.7554 5.94799 24.7213C5.95081 24.692 5.94453 24.6625 5.93 24.637C5.93 24.5868 5.914 24.5185 5.914 24.4522C5.91251 24.4121 5.91793 24.372 5.93 24.3338V24.1671C5.92193 24.1226 5.92193 24.077 5.93 24.0326C5.93946 24.0007 5.95664 23.9718 5.98 23.9482C5.98224 23.9352 5.98854 23.9233 5.99799 23.9141C6.01103 23.8823 6.01651 23.848 6.014 23.8137C6.01069 23.7775 6.01484 23.741 6.02619 23.7064C6.03755 23.6719 6.05586 23.6401 6.08 23.6129V23.5948C6.07729 23.5604 6.08349 23.5258 6.09799 23.4945C6.09799 23.4603 6.13199 23.4282 6.14799 23.4101C6.14799 23.4059 6.14968 23.4018 6.15268 23.3988C6.15568 23.3958 6.15975 23.3941 6.164 23.3941C6.17166 23.3663 6.17768 23.3382 6.182 23.3097C6.19608 23.2507 6.21829 23.1939 6.24799 23.1411C6.26643 23.115 6.28948 23.0925 6.316 23.0748V23.0567C6.3149 23.0284 6.32038 23.0002 6.332 22.9744C6.35445 22.936 6.38279 22.9015 6.416 22.872L6.466 22.8218C6.46971 22.7912 6.48144 22.7621 6.5 22.7375C6.516 22.7214 6.532 22.6873 6.55 22.6712L6.6 22.621C6.6 22.6168 6.60168 22.6127 6.60468 22.6097C6.60768 22.6066 6.61176 22.605 6.616 22.605C6.634 22.5869 6.634 22.5708 6.65 22.5367C6.65393 22.5115 6.66585 22.4883 6.68399 22.4704C6.74316 22.3703 6.82295 22.2841 6.918 22.2174C6.96659 22.1767 7.01143 22.1317 7.052 22.0829C7.068 22.0668 7.06799 22.0488 7.08599 22.0488C7.11799 22.0166 7.13599 21.9825 7.18599 21.9323C7.20376 21.9141 7.22691 21.9021 7.252 21.8982L7.27 21.8821C7.286 21.8821 7.28599 21.864 7.28599 21.848C7.30686 21.8286 7.32383 21.8055 7.33599 21.7797C7.35199 21.7636 7.386 21.7476 7.404 21.7295C7.41319 21.7301 7.42239 21.7284 7.43076 21.7245C7.43913 21.7206 7.44642 21.7148 7.452 21.7074C7.47 21.6914 7.48599 21.6733 7.48599 21.6572C7.48599 21.6412 7.51999 21.607 7.53599 21.589C7.55199 21.5709 7.586 21.5568 7.604 21.5388H7.62C7.62629 21.5322 7.63099 21.5242 7.63376 21.5155C7.63653 21.5068 7.63729 21.4976 7.63599 21.4886C7.65399 21.4725 7.67 21.4384 7.704 21.4223C7.71388 21.4098 7.7268 21.4001 7.74152 21.3941C7.75624 21.3881 7.77225 21.3861 7.788 21.3882L7.804 21.3721C7.82 21.354 7.838 21.338 7.854 21.3219C7.87 21.3058 7.90399 21.3038 7.92199 21.3038H7.938C7.954 21.2878 7.972 21.2536 8.004 21.2376C8.02164 21.2057 8.04464 21.1772 8.07199 21.1532C8.09026 21.1321 8.11275 21.115 8.138 21.103C8.156 21.085 8.172 21.0689 8.19 21.0689C8.208 21.0689 8.206 21.0528 8.206 21.0348C8.24737 21.0017 8.29232 20.9734 8.34 20.9504H8.44C8.456 20.9344 8.474 20.9344 8.49 20.9183C8.506 20.9023 8.558 20.9002 8.59 20.9002C8.71245 20.9172 8.82504 20.9769 8.908 21.0689C8.92611 21.0899 8.94282 21.112 8.958 21.1352V21.1532L8.992 21.1874C9.02943 21.2025 9.06344 21.225 9.092 21.2536C9.12122 21.3006 9.14408 21.3512 9.15999 21.4042L9.20999 21.5066C9.22264 21.5405 9.24578 21.5693 9.276 21.589C9.34953 21.6783 9.38605 21.7926 9.378 21.9082C9.36 22.0608 9.226 22.1451 9.126 22.2114C9.10075 22.2233 9.07826 22.2404 9.05999 22.2616C9.02992 22.2898 8.99548 22.3128 8.958 22.3299C8.91476 22.3596 8.87003 22.3871 8.824 22.4122C8.824 22.4303 8.808 22.4463 8.808 22.4644L8.742 22.5307C8.72303 22.5483 8.69943 22.5601 8.674 22.5648C8.66505 22.5742 8.65293 22.5799 8.64 22.5809C8.624 22.615 8.59 22.6311 8.574 22.6652L8.424 22.8158C8.39 22.8339 8.374 22.8499 8.34 22.866C8.306 22.882 8.28999 22.9001 8.27199 22.9182C8.25399 22.9363 8.256 22.9343 8.256 22.9503C8.256 22.9664 8.222 23.0005 8.206 23.0186C8.18712 23.036 8.16339 23.0472 8.138 23.0507L8.12199 23.0688C8.08532 23.1005 8.05656 23.1404 8.038 23.1852C7.99088 23.264 7.92828 23.3323 7.854 23.386C7.838 23.386 7.82 23.4202 7.82 23.4362C7.80012 23.4623 7.78334 23.4906 7.77 23.5206L7.704 23.5868C7.69514 23.5873 7.68676 23.591 7.68049 23.5973C7.67421 23.6036 7.67048 23.6121 7.67 23.621C7.62976 23.6905 7.59627 23.7638 7.57 23.8398C7.54218 23.9469 7.4969 24.0487 7.43599 24.141C7.41997 24.2697 7.41997 24.3998 7.43599 24.5285C7.43521 24.5575 7.44067 24.5862 7.452 24.6129V24.6972C7.48694 24.7794 7.53873 24.8533 7.604 24.914C7.62 24.9321 7.61999 24.9482 7.63599 24.9482C7.65199 24.9482 7.654 24.9642 7.654 24.9823C7.68277 25.0155 7.71651 25.0439 7.754 25.0666H7.77C7.788 25.0666 7.804 25.0486 7.82 25.0486C7.82914 25.0581 7.84104 25.0644 7.854 25.0666C7.88491 25.067 7.91469 25.0784 7.938 25.0988C7.97528 25.1164 8.01511 25.1279 8.056 25.1329C8.072 25.1329 8.072 25.1329 8.088 25.1168C8.138 25.1168 8.20599 25.0988 8.27199 25.0988C8.37631 25.0692 8.48258 25.0471 8.59 25.0325C8.608 25.0164 8.64 24.9984 8.658 24.9823L8.758 24.9321L8.858 24.8819C8.95416 24.8568 9.03757 24.7967 9.092 24.7133V24.6972L9.126 24.6791C9.28603 24.5818 9.42263 24.4502 9.526 24.2936C9.57667 24.2224 9.63285 24.1552 9.694 24.0928C9.69265 24.0561 9.70324 24.02 9.72418 23.99C9.74511 23.9599 9.77523 23.9375 9.80999 23.9262L9.844 23.892C9.86346 23.86 9.88019 23.8264 9.894 23.7916C9.89704 23.7553 9.9087 23.7201 9.928 23.6892C9.94065 23.6643 9.95757 23.6419 9.978 23.623L9.994 23.6069C9.99263 23.5977 9.99355 23.5883 9.99669 23.5795C9.99983 23.5708 10.0051 23.5629 10.012 23.5567C10.0093 23.5217 10.0175 23.4867 10.0354 23.4565C10.0533 23.4263 10.0801 23.4024 10.112 23.388C10.1296 23.3374 10.1583 23.2915 10.196 23.2535C10.212 23.2194 10.228 23.2033 10.228 23.1852C10.2376 23.177 10.2439 23.1656 10.246 23.1531C10.2447 23.1441 10.2455 23.1349 10.2482 23.1262C10.251 23.1175 10.2557 23.1095 10.262 23.1029C10.2748 23.0681 10.2987 23.0384 10.33 23.0186C10.33 23.0005 10.346 22.9844 10.346 22.9684C10.346 22.9523 10.362 22.9343 10.362 22.9182C10.362 22.9021 10.38 22.8499 10.396 22.8158C10.412 22.7816 10.412 22.7837 10.43 22.7656C10.4318 22.7529 10.4374 22.741 10.446 22.7315V22.6813C10.464 22.6491 10.464 22.615 10.48 22.5809C10.4927 22.5511 10.5164 22.5274 10.546 22.5146C10.546 22.5098 10.5479 22.5052 10.5513 22.5018C10.5546 22.4984 10.5592 22.4965 10.564 22.4965V22.3961C10.5867 22.3187 10.6204 22.245 10.664 22.1773C10.6994 22.1475 10.7234 22.1064 10.732 22.0608V22.0427C10.732 22.0267 10.714 21.9925 10.732 21.9604C10.75 21.9283 10.764 21.8921 10.782 21.858C10.8 21.8239 10.814 21.8259 10.814 21.8078L10.798 21.7737L10.814 21.7416C10.832 21.7074 10.848 21.6914 10.864 21.6914V21.6733C10.8705 21.625 10.8883 21.5789 10.916 21.5388C10.932 21.5227 10.932 21.5066 10.948 21.4886V21.4384C10.9523 21.4099 10.9583 21.3818 10.966 21.354C10.9779 21.3287 10.9949 21.3061 11.016 21.2878C11.016 21.2697 11.016 21.2697 11.032 21.2697V21.2376C11.024 21.225 11.0197 21.2104 11.0197 21.1954C11.0197 21.1805 11.024 21.1658 11.032 21.1532C11.0448 21.104 11.068 21.0582 11.1 21.0187C11.132 20.9504 11.15 20.9183 11.132 20.8681L11.116 20.834V20.8159C11.1282 20.7723 11.1508 20.7323 11.182 20.6995C11.2007 20.6812 11.2126 20.6571 11.216 20.6312H11.2C11.2 20.5991 11.182 20.581 11.182 20.5489C11.2 20.485 11.2227 20.4226 11.25 20.3621C11.2626 20.3373 11.2796 20.3148 11.3 20.2959C11.3042 20.2959 11.3083 20.2942 11.3113 20.2912C11.3143 20.2881 11.316 20.2841 11.316 20.2798V20.2617C11.3307 20.2362 11.3369 20.2067 11.334 20.1774C11.334 20.1613 11.35 20.1453 11.35 20.1111C11.35 20.077 11.368 20.077 11.384 20.0609V19.9605C11.4 19.9264 11.4 19.9103 11.418 19.8923V19.8581C11.418 19.826 11.4 19.8079 11.418 19.7758C11.4161 19.7389 11.4275 19.7026 11.45 19.6734C11.46 19.6655 11.4665 19.654 11.468 19.6413V19.6072C11.4672 19.5782 11.4727 19.5494 11.484 19.5228C11.484 19.4887 11.518 19.4726 11.518 19.4385C11.5222 19.4385 11.5263 19.4368 11.5293 19.4338C11.5323 19.4308 11.534 19.4267 11.534 19.4224V19.4064C11.5328 19.3969 11.5338 19.3872 11.5369 19.3782C11.54 19.3691 11.5452 19.3609 11.552 19.3542C11.5526 19.3238 11.564 19.2946 11.584 19.2718V19.2377C11.5759 19.2102 11.5759 19.1809 11.584 19.1534C11.5859 19.0994 11.6033 19.0471 11.634 19.0028C11.6587 18.967 11.6764 18.9268 11.686 18.8843V18.8341C11.677 18.8128 11.6724 18.79 11.6724 18.7669C11.6724 18.7437 11.677 18.7209 11.686 18.6996C11.702 18.6333 11.736 18.6153 11.752 18.5811C11.768 18.547 11.786 18.5651 11.786 18.5309C11.787 18.5217 11.786 18.5124 11.7828 18.5037C11.7797 18.495 11.7746 18.4871 11.768 18.4807V18.3803C11.7747 18.3373 11.7919 18.2966 11.818 18.2619C11.8213 18.2443 11.8273 18.2273 11.836 18.2117V18.1795C11.8198 18.1546 11.8134 18.1246 11.818 18.0952C11.8264 18.0391 11.8499 17.9863 11.886 17.9426C11.92 17.9265 11.936 17.8763 11.952 17.8603V17.7418C11.9532 17.7106 11.9653 17.6808 11.986 17.6575V17.6234C11.9728 17.5916 11.9673 17.5572 11.97 17.523C11.9714 17.5037 11.9765 17.485 11.985 17.4678C11.9936 17.4505 12.0055 17.4352 12.02 17.4226C12.0384 17.3919 12.05 17.3577 12.054 17.3222V17.2378C12.0527 17.2223 12.0549 17.2066 12.0605 17.192C12.066 17.1774 12.0747 17.1643 12.086 17.1535V17.1374C12.0782 17.1216 12.0729 17.1047 12.07 17.0872C12.07 17.0531 12.086 17.037 12.086 17.019C12.0883 17.0193 12.0906 17.0191 12.0927 17.0184C12.0949 17.0177 12.0969 17.0166 12.0986 17.015C12.1003 17.0135 12.1017 17.0117 12.1026 17.0096C12.1035 17.0075 12.104 17.0052 12.104 17.0029V16.9848C12.104 16.9527 12.086 16.9346 12.104 16.9186C12.1048 16.8992 12.1096 16.8803 12.1182 16.863C12.1269 16.8457 12.1391 16.8304 12.154 16.8182C12.17 16.784 12.188 16.768 12.17 16.7178V16.6877C12.157 16.6559 12.1515 16.6215 12.154 16.5873C12.1676 16.549 12.1903 16.5145 12.22 16.4869C12.2248 16.4869 12.2293 16.485 12.2327 16.4816C12.2361 16.4782 12.238 16.4736 12.238 16.4688V16.4367C12.2394 16.4275 12.2385 16.4181 12.2353 16.4093C12.2322 16.4005 12.2269 16.3927 12.22 16.3865V16.3523C12.2338 16.3175 12.2505 16.2839 12.27 16.2519C12.288 16.2339 12.304 16.2178 12.304 16.2018V16.1676C12.2972 16.1398 12.2918 16.1117 12.288 16.0833C12.3027 16.0569 12.3135 16.0285 12.32 15.999C12.338 15.9829 12.338 15.9829 12.338 15.9648V15.9488C12.338 15.9146 12.338 15.8986 12.354 15.8825C12.3549 15.8512 12.367 15.8213 12.388 15.7982C12.3877 15.7959 12.3879 15.7936 12.3886 15.7914C12.3893 15.7892 12.3904 15.7872 12.3919 15.7855C12.3934 15.7838 12.3953 15.7824 12.3974 15.7815C12.3995 15.7805 12.4017 15.7801 12.404 15.7801C12.397 15.7523 12.3916 15.7242 12.388 15.6958C12.388 15.6797 12.372 15.6456 12.372 15.6295L12.32 15.6797C12.2671 15.7394 12.2049 15.7903 12.136 15.8303C12.104 15.8303 12.086 15.8484 12.07 15.8484H12.036C12.02 15.8484 12.002 15.8825 11.97 15.8986C11.938 15.9146 11.92 15.9488 11.886 15.9488C11.8595 15.9601 11.8308 15.9656 11.802 15.9648H11.786L11.736 16.015C11.702 16.0331 11.686 16.0672 11.634 16.0833C11.6024 16.0965 11.5681 16.102 11.534 16.0994C11.5 16.1174 11.484 16.1174 11.45 16.1335C11.416 16.1495 11.418 16.1496 11.4 16.1676C11.3682 16.2 11.328 16.2229 11.284 16.2339C11.2643 16.2481 11.2401 16.2546 11.216 16.2519H11.2C11.132 16.268 11.066 16.3022 11 16.3182C10.8977 16.3624 10.7911 16.396 10.682 16.4186C10.666 16.4367 10.632 16.4367 10.616 16.4527C10.6 16.4688 10.532 16.4688 10.498 16.4688H10.414C10.374 16.4751 10.335 16.4866 10.298 16.5029C10.2394 16.5262 10.177 16.5378 10.114 16.5371H10.08C10.071 16.5382 10.0619 16.5374 10.0532 16.5346C10.0446 16.5318 10.0367 16.5272 10.03 16.521H9.964C9.946 16.5371 9.91199 16.5371 9.89599 16.5531H9.852C9.82 16.5531 9.786 16.5371 9.752 16.5371C9.71978 16.5262 9.68599 16.5208 9.652 16.521H9.468C9.42255 16.525 9.37678 16.5189 9.33399 16.5029C9.29999 16.5029 9.284 16.4688 9.266 16.4527C9.248 16.4367 9.25 16.4527 9.25 16.4367H9.15C9.066 16.4025 8.932 16.3523 8.866 16.3182C8.832 16.2841 8.798 16.268 8.782 16.2519C8.766 16.2359 8.748 16.2178 8.732 16.2178C8.716 16.2178 8.71399 16.2018 8.69799 16.1837C8.67876 16.1828 8.65993 16.1779 8.64271 16.1692C8.62549 16.1606 8.61025 16.1484 8.59799 16.1335C8.57985 16.1156 8.56793 16.0924 8.564 16.0672L8.54799 16.0492C8.52833 16.0287 8.50534 16.0117 8.48 15.999C8.44414 15.98 8.41484 15.9506 8.39599 15.9146C8.38601 15.9067 8.37795 15.8967 8.37241 15.8852C8.36687 15.8737 8.36399 15.8611 8.364 15.8484L8.34599 15.8303C8.32999 15.7982 8.31199 15.7801 8.29599 15.748C8.24987 15.6857 8.21096 15.6183 8.18 15.5472V15.3464C8.17055 15.3372 8.16424 15.3253 8.162 15.3123C8.15186 15.3044 8.14356 15.2943 8.13769 15.2829C8.13182 15.2715 8.12851 15.2589 8.128 15.246V15.1275C8.128 15.1115 8.112 15.0773 8.112 15.0593C8.099 15.0339 8.09345 15.0053 8.09599 14.9769C8.09346 14.942 8.09893 14.907 8.112 14.8745C8.112 14.8585 8.112 14.8424 8.128 14.8424C8.144 14.8424 8.112 14.8083 8.112 14.7741C8.1039 14.7357 8.1039 14.6961 8.112 14.6577C8.11872 14.6147 8.13589 14.574 8.162 14.5392C8.16426 14.5395 8.16656 14.5393 8.16873 14.5386C8.17091 14.5379 8.17293 14.5368 8.17463 14.5353C8.17633 14.5338 8.1777 14.5319 8.17862 14.5298C8.17955 14.5277 8.18002 14.5254 8.18 14.5231C8.17142 14.4545 8.18252 14.3849 8.212 14.3224C8.23 14.3063 8.22999 14.2722 8.24599 14.2561V14.1376C8.2703 14.0506 8.30382 13.9665 8.34599 13.8866C8.36399 13.8686 8.37999 13.8364 8.39599 13.8184C8.40485 13.8179 8.41323 13.8141 8.4195 13.8078C8.42578 13.8015 8.42952 13.7931 8.43 13.7842C8.43 13.7682 8.44599 13.734 8.44599 13.718C8.44599 13.7019 8.47999 13.6678 8.49599 13.6517C8.50077 13.6517 8.50535 13.6498 8.50872 13.6464C8.5121 13.643 8.514 13.6384 8.514 13.6336C8.52048 13.6038 8.53197 13.5753 8.54799 13.5493C8.55927 13.4901 8.58168 13.4335 8.614 13.3827C8.63 13.3646 8.62999 13.3485 8.64799 13.3325C8.65926 13.2831 8.68186 13.237 8.714 13.1979C8.73708 13.16 8.76535 13.1255 8.79799 13.0955C8.81399 13.0795 8.848 13.0634 8.866 13.0293C8.882 13.0293 8.88199 13.0132 8.89799 12.9951C8.92187 12.9528 8.95567 12.917 8.99644 12.8908C9.03722 12.8645 9.08375 12.8487 9.132 12.8445C9.17845 12.8471 9.22397 12.8587 9.266 12.8787L9.368 12.9289C9.36848 12.9372 9.372 12.9451 9.3779 12.9511C9.3838 12.957 9.39166 12.9605 9.4 12.961C9.418 12.9791 9.434 12.9791 9.45 12.9951C9.47985 13.0085 9.50803 13.0254 9.53399 13.0453C9.55199 13.0634 9.56799 13.0955 9.58399 13.1136V13.1297C9.60199 13.1297 9.602 13.1457 9.618 13.1457C9.62717 13.1443 9.63654 13.1453 9.64527 13.1484C9.654 13.1516 9.66181 13.1569 9.668 13.1638L9.768 13.2642C9.8042 13.3078 9.8501 13.3421 9.902 13.3646H9.93599L9.954 13.3987C9.99415 13.4537 10.0221 13.5167 10.036 13.5835C10.054 13.5835 10.054 13.5995 10.054 13.6176C10.0823 13.6805 10.0933 13.7498 10.086 13.8184C10.0724 13.8658 10.0436 13.9075 10.004 13.9368L9.97 13.971C9.936 14.0031 9.936 14.0533 9.92 14.0874C9.904 14.1216 9.886 14.1557 9.87 14.1878C9.854 14.22 9.836 14.238 9.82 14.2561C9.804 14.2742 9.768 14.3063 9.752 14.3224V14.3565C9.736 14.3726 9.736 14.4067 9.718 14.4408C9.7 14.475 9.686 14.5573 9.652 14.6416C9.65074 14.6545 9.64508 14.6666 9.63599 14.6758C9.60249 14.7559 9.58483 14.8418 9.58399 14.9287C9.58399 14.9789 9.652 15.0793 9.702 15.0793H9.73599C9.76722 15.0648 9.80167 15.0585 9.83599 15.0613H9.87C9.8983 15.0658 9.92633 15.0719 9.954 15.0793H9.98599C10.004 15.0793 10.036 15.0613 10.054 15.0613C10.104 15.0452 10.138 15.0111 10.188 15.0111H10.322C10.3655 14.9987 10.4108 14.9933 10.456 14.995C10.472 14.9789 10.488 14.9789 10.506 14.9609C10.5303 14.9345 10.5587 14.9121 10.59 14.8946C10.6327 14.8766 10.6779 14.8651 10.724 14.8605C10.756 14.8444 10.79 14.8444 10.806 14.8263C10.874 14.8069 10.9368 14.7727 10.99 14.7259C11.0373 14.6922 11.0883 14.6639 11.142 14.6416C11.1725 14.6234 11.2067 14.6125 11.242 14.6095C11.2677 14.5931 11.2962 14.5815 11.326 14.5754C11.326 14.5573 11.342 14.5573 11.36 14.5412C11.3783 14.52 11.4008 14.5029 11.426 14.491L11.544 14.4408H11.576L11.594 14.4228C11.61 14.4067 11.61 14.3726 11.644 14.3565C11.6987 14.3074 11.7608 14.2674 11.828 14.238C11.862 14.222 11.912 14.2059 11.944 14.1878C12.0177 14.14 12.0804 14.0771 12.128 14.0031L12.162 13.9529H12.212C12.23 13.9529 12.246 13.9529 12.28 13.9188C12.314 13.8846 12.312 13.8686 12.346 13.8525C12.38 13.8364 12.38 13.8364 12.396 13.8184C12.4277 13.8089 12.4566 13.7916 12.48 13.7682C12.514 13.734 12.564 13.7019 12.598 13.6678C12.6321 13.6339 12.6713 13.6054 12.714 13.5835C12.7156 13.5702 12.722 13.5581 12.732 13.5493L12.764 13.5172C12.782 13.4831 12.816 13.4831 12.832 13.465L12.848 13.4489C12.858 13.4401 12.8644 13.428 12.866 13.4148C12.8864 13.3861 12.9084 13.3586 12.932 13.3325C12.9612 13.3041 12.995 13.281 13.032 13.2642C13.05 13.2642 13.066 13.2481 13.082 13.2481C13.1424 13.1965 13.1986 13.1401 13.25 13.0795C13.266 13.0795 13.266 13.0634 13.284 13.0453C13.302 13.0273 13.318 12.9951 13.35 12.961C13.382 12.9269 13.4 12.9449 13.418 12.9289C13.436 12.9128 13.434 12.9289 13.452 12.9108C13.452 12.9065 13.4537 12.9025 13.4567 12.8994C13.4597 12.8964 13.4638 12.8947 13.468 12.8947C13.4703 12.8802 13.476 12.8664 13.4847 12.8545C13.4934 12.8426 13.5048 12.833 13.518 12.8265C13.534 12.7943 13.552 12.7763 13.568 12.7763C13.5769 12.7668 13.5891 12.7611 13.602 12.7602C13.602 12.7441 13.602 12.7441 13.618 12.7261C13.634 12.708 13.636 12.6939 13.652 12.6598C13.668 12.6257 13.702 12.6257 13.736 12.6096C13.77 12.5936 13.802 12.5594 13.802 12.5253L13.82 12.4751L13.852 12.4711C13.8604 12.4612 13.8709 12.4533 13.8826 12.4477C13.8943 12.4422 13.9071 12.4392 13.92 12.4389C13.9976 12.3526 14.088 12.2788 14.188 12.2201C14.2446 12.1898 14.2953 12.1497 14.338 12.1016C14.354 12.1016 14.354 12.0856 14.372 12.0695C14.4055 12.0227 14.4522 11.9871 14.506 11.9671H14.538C14.572 11.9671 14.606 11.9671 14.622 11.9852H14.652C14.6708 11.9638 14.694 11.9466 14.72 11.935C14.7623 11.9201 14.8072 11.914 14.852 11.9169C14.8723 11.9043 14.8962 11.8986 14.92 11.9008C14.9292 11.8917 14.9412 11.886 14.954 11.8848C14.9765 11.8628 15.0066 11.8505 15.038 11.8506C15.0442 11.8437 15.052 11.8384 15.0607 11.8353C15.0695 11.8321 15.0788 11.8312 15.088 11.8326C15.12 11.8326 15.154 11.8506 15.188 11.8506H15.372C15.3783 11.8438 15.3861 11.8387 15.3948 11.8355C15.4035 11.8324 15.4128 11.8314 15.422 11.8326C15.4484 11.8208 15.4771 11.8153 15.506 11.8165C15.579 11.8101 15.6523 11.8223 15.7194 11.8517C15.7865 11.8812 15.8451 11.9271 15.89 11.9852C15.9518 12.1036 15.9695 12.2403 15.94 12.3707V12.5895C15.94 12.6056 15.958 12.6237 15.958 12.6397C15.958 12.6558 15.98 12.714 15.98 12.7642Z" fill="#D9D9D9"/>
<path d="M17.186 15.6034C17.186 15.5532 17.152 15.5191 17.152 15.487C17.152 15.4026 17.168 15.3183 17.168 15.234C17.168 15.1998 17.152 15.1496 17.152 15.1175C17.152 15.0492 17.186 14.999 17.168 14.9488C17.168 14.8645 17.152 14.7983 17.152 14.73C17.152 14.6959 17.168 14.6798 17.168 14.6296C17.202 14.3947 17.152 14.1417 17.168 13.9067C17.186 13.8726 17.202 13.8224 17.218 13.7883C17.234 13.7541 17.202 13.7381 17.202 13.706C17.202 13.6738 17.218 13.6377 17.218 13.6036C17.218 13.5694 17.202 13.5373 17.202 13.5032C17.1904 13.307 17.1957 13.1101 17.218 12.9148C17.236 12.8092 17.236 12.7012 17.218 12.5956C17.21 12.5289 17.21 12.4615 17.218 12.3948C17.218 12.3265 17.252 12.2763 17.252 12.2101C17.252 12.1438 17.236 12.1257 17.252 12.0916C17.268 12.0575 17.27 12.0073 17.27 11.9571C17.27 11.9069 17.252 11.8225 17.252 11.7402C17.252 11.6579 17.27 11.6218 17.27 11.5555V11.3547C17.302 11.0354 17.436 10.9009 17.804 10.9531C17.906 10.9531 18.038 10.9873 18.172 10.9873C18.206 10.9873 18.24 10.9712 18.274 10.9712C18.308 10.9712 18.34 10.9873 18.374 10.9873C18.4945 10.9863 18.614 11.0088 18.726 11.0535C18.758 11.0716 18.758 11.1218 18.792 11.172C18.8057 11.2103 18.8283 11.2447 18.858 11.2724C18.91 11.3728 18.876 11.4571 18.876 11.5916C18.884 11.6697 18.884 11.7485 18.876 11.8266C18.876 11.929 18.826 12.0113 18.826 12.0796C18.826 12.1137 18.842 12.1458 18.842 12.1799C18.842 12.2803 18.826 12.3807 18.826 12.4651C18.826 12.5494 18.842 12.5494 18.842 12.5996C18.821 12.6993 18.8096 12.8009 18.808 12.9028C18.808 12.9369 18.826 12.9691 18.826 13.0032C18.826 13.0373 18.776 13.0875 18.776 13.1217C18.776 13.1558 18.826 13.206 18.826 13.2562C18.826 13.2722 18.792 13.3064 18.792 13.3566C18.776 13.473 18.808 13.6417 18.792 13.7762V14.1959C18.792 14.23 18.776 14.2642 18.776 14.2983C18.776 14.3324 18.792 14.3645 18.792 14.4147C18.792 14.4649 18.776 14.4991 18.776 14.5332C18.776 14.5673 18.792 14.5995 18.792 14.6336C18.792 14.6999 18.776 14.7501 18.776 14.8023C18.7841 14.8636 18.7841 14.9257 18.776 14.987C18.7983 15.2662 18.8037 15.5465 18.792 15.8263C18.792 15.9106 18.776 15.9769 18.776 16.0793C18.776 16.1817 18.808 16.264 18.808 16.3644C18.808 16.4648 18.742 16.4809 18.776 16.5993C18.776 16.6997 18.792 16.8001 18.792 16.9025C18.792 17.0371 18.808 17.1375 18.808 17.2539C18.808 17.3222 18.792 17.4065 18.792 17.4728C18.792 17.539 18.808 17.5571 18.808 17.5912C18.808 17.6254 18.776 17.6575 18.776 17.6916C18.776 17.7258 18.808 17.7418 18.808 17.776C18.808 17.8101 18.792 17.8422 18.792 17.8764C18.792 17.9105 18.808 17.9426 18.808 17.9768V18.0772C18.808 18.1615 18.842 18.2298 18.842 18.296C18.8277 18.4079 18.8224 18.5207 18.826 18.6333C18.844 18.6698 18.8549 18.7093 18.858 18.7498C18.8761 18.8615 18.8761 18.9754 18.858 19.0871C18.858 19.1193 18.842 19.1695 18.842 19.2197C18.842 19.2698 18.91 19.3381 18.91 19.4204C18.9127 19.4549 18.9065 19.4895 18.892 19.5208C18.892 19.6052 18.926 19.6895 18.926 19.7899C18.9222 19.8183 18.9168 19.8464 18.91 19.8742C18.9288 19.9206 18.9509 19.9656 18.976 20.0088V20.2276C18.976 20.2597 18.96 20.2939 18.96 20.328C18.96 20.3622 19.01 20.4123 19.01 20.4625C19.01 20.5127 18.992 20.5288 18.992 20.5629C18.9891 20.6198 18.9952 20.6767 19.01 20.7316C19.01 20.7637 19.044 20.7979 19.06 20.8481C19.052 20.9094 19.052 20.9715 19.06 21.0328C19.06 21.083 19.094 21.1171 19.094 21.1513C19.094 21.1854 19.076 21.2356 19.094 21.2677C19.112 21.2998 19.126 21.336 19.144 21.3862C19.16 21.4705 19.126 21.587 19.144 21.6713C19.16 21.7215 19.21 21.7556 19.21 21.7898C19.236 21.8604 19.236 21.938 19.21 22.0086C19.2448 22.0489 19.2731 22.0942 19.294 22.1432C19.3074 22.2038 19.3127 22.2659 19.31 22.3279C19.328 22.4624 19.412 22.5628 19.428 22.6632C19.428 22.6973 19.412 22.7295 19.428 22.7636C19.444 22.7977 19.494 22.8319 19.512 22.864C19.53 22.8961 19.528 22.9664 19.562 22.9985C19.596 23.0307 19.628 23.0668 19.646 23.1009C19.68 23.1672 19.712 23.2515 19.746 23.3178C19.762 23.3519 19.796 23.368 19.812 23.4021C19.8331 23.4787 19.8445 23.5576 19.846 23.637C19.846 23.6712 19.88 23.7214 19.88 23.7555C19.88 23.7896 19.812 23.8218 19.78 23.8559C19.7658 23.9 19.7545 23.9449 19.746 23.9904C19.697 24.043 19.6522 24.0994 19.612 24.1591C19.5628 24.2377 19.5232 24.322 19.494 24.4101C19.4742 24.4303 19.4574 24.4533 19.444 24.4783C19.4448 24.5073 19.4393 24.5361 19.428 24.5627C19.428 24.5948 19.378 24.5948 19.344 24.6289C19.31 24.6631 19.31 24.7133 19.278 24.7293C19.2118 24.7721 19.1376 24.8007 19.06 24.8137C19.0136 24.7885 18.9688 24.7603 18.926 24.7293C18.8782 24.7143 18.833 24.692 18.792 24.6631C18.758 24.6289 18.758 24.5787 18.742 24.5627C18.726 24.5466 18.674 24.5285 18.642 24.4944C18.61 24.4603 18.592 24.4281 18.558 24.378C18.524 24.3278 18.474 24.3258 18.458 24.2936C18.442 24.2615 18.424 24.1912 18.408 24.1591C18.3595 24.1005 18.3029 24.0491 18.24 24.0065C18.122 24.0246 18.09 24.141 17.988 24.1912C17.958 24.2108 17.9237 24.2225 17.888 24.2254C17.854 24.2434 17.838 24.2756 17.804 24.2756C17.77 24.2756 17.72 24.2936 17.704 24.3258C17.688 24.3579 17.654 24.394 17.62 24.4101C17.5888 24.4246 17.5543 24.4309 17.52 24.4281C17.47 24.4442 17.42 24.4784 17.37 24.4944H17.27C17.236 24.5105 17.218 24.5446 17.186 24.5627C17.1512 24.5601 17.1163 24.5656 17.084 24.5787C17.068 24.5787 17.052 24.5948 17.018 24.6129C16.9347 24.6263 16.8503 24.6317 16.766 24.6289C16.6548 24.637 16.5432 24.637 16.432 24.6289C16.316 24.6129 16.164 24.6289 16.08 24.6129C16.048 24.6129 16.03 24.5787 15.998 24.5627C15.864 24.5105 15.746 24.4783 15.628 24.4281C15.562 24.4101 15.512 24.3438 15.444 24.3097C15.3924 24.2704 15.3367 24.2368 15.278 24.2093C15.228 24.1752 15.194 24.1089 15.144 24.0748C15.1061 24.0585 15.0716 24.0353 15.042 24.0065C14.9823 23.9491 14.9268 23.8873 14.876 23.8218C14.858 23.8057 14.858 23.7555 14.826 23.7394C14.794 23.7234 14.758 23.6712 14.742 23.637C14.6724 23.5301 14.6109 23.418 14.558 23.3017C14.5386 23.2661 14.5094 23.2369 14.474 23.2174C14.4765 23.1831 14.4711 23.1488 14.458 23.117L14.374 23.0327C14.356 22.9664 14.34 22.8821 14.324 22.8138C14.2837 22.7503 14.2496 22.683 14.222 22.613C14.2246 22.5676 14.2192 22.522 14.206 22.4785C14.19 22.4102 14.14 22.36 14.122 22.2938C14.09 22.1753 14.106 22.0408 14.072 21.9062C14.0528 21.8464 14.0414 21.7843 14.038 21.7215C13.9979 21.5674 13.9705 21.4103 13.956 21.2517C13.956 21.2015 13.972 21.1513 13.956 21.1171C13.9524 21.0655 13.9409 21.0147 13.922 20.9665C13.904 20.7818 13.904 20.579 13.904 20.4123C13.9174 20.3341 13.9234 20.2548 13.922 20.1754C13.922 20.1433 13.872 20.0931 13.872 20.059C13.872 20.0248 13.904 19.9746 13.904 19.9405C13.896 19.8684 13.896 19.7957 13.904 19.7236C13.9264 19.556 13.9324 19.3865 13.922 19.2176C13.922 19.1674 13.888 19.1353 13.904 19.0851C13.92 19.0349 13.956 19.0008 13.956 18.9506C13.956 18.9004 13.938 18.8161 13.938 18.7498C13.938 18.6333 14.006 18.5309 14.006 18.4305C14.006 18.3964 13.988 18.3643 13.988 18.3302C13.988 18.2298 14.038 18.1615 14.038 18.0611C14.056 18.027 14.022 17.9768 14.038 17.9266C14.054 17.8764 14.09 17.8603 14.09 17.8262C14.0981 17.7871 14.0981 17.7468 14.09 17.7077C14.09 17.6575 14.122 17.6234 14.14 17.5732C14.158 17.523 14.14 17.4567 14.156 17.4065C14.172 17.3563 14.206 17.3222 14.206 17.288C14.24 17.2218 14.24 17.1535 14.274 17.0873C14.2874 17.0248 14.3041 16.9632 14.324 16.9025C14.3471 16.8548 14.3753 16.8097 14.408 16.768C14.44 16.7178 14.44 16.6495 14.474 16.5993C14.4991 16.5527 14.5272 16.5078 14.558 16.4648C14.592 16.3986 14.642 16.3303 14.674 16.264C14.7317 16.1833 14.7988 16.1098 14.874 16.0452C14.9475 15.9781 15.0257 15.9163 15.108 15.8604L15.174 15.7922C15.192 15.7761 15.242 15.7761 15.276 15.76C15.3176 15.7272 15.3625 15.6989 15.41 15.6757C15.4527 15.6595 15.4986 15.6533 15.544 15.6576C15.66 15.6255 15.76 15.5412 15.844 15.5231C15.978 15.507 16.062 15.5753 16.162 15.5914C16.196 15.5914 16.262 15.5753 16.296 15.5753C16.396 15.6255 16.496 15.6576 16.598 15.7078C16.6449 15.7332 16.6955 15.7508 16.748 15.76C16.782 15.7761 16.816 15.76 16.848 15.76C16.88 15.76 16.916 15.8263 16.95 15.8424C16.9985 15.8959 17.0631 15.9318 17.134 15.9448C17.166 15.9106 17.15 15.8604 17.15 15.8102C17.1701 15.743 17.1821 15.6735 17.186 15.6034ZM15.796 17.519V17.6194C15.78 17.6876 15.73 17.7218 15.712 17.788V17.8724C15.696 17.9386 15.68 18.0229 15.662 18.0912C15.646 18.1253 15.612 18.1575 15.612 18.1916C15.612 18.2257 15.646 18.292 15.628 18.3603C15.61 18.4285 15.596 18.4446 15.578 18.4948C15.57 18.595 15.57 18.6958 15.578 18.796C15.554 18.8609 15.5372 18.9282 15.528 18.9968C15.528 19.0289 15.546 19.063 15.546 19.0972C15.546 19.1815 15.494 19.298 15.494 19.4004C15.512 19.6296 15.512 19.8599 15.494 20.0891C15.494 20.1895 15.528 20.2899 15.528 20.3561C15.528 20.3903 15.494 20.4405 15.494 20.4746C15.494 20.5087 15.528 20.5429 15.546 20.575C15.564 20.6071 15.512 20.6433 15.512 20.6774C15.512 20.7115 15.546 20.7597 15.546 20.8099V20.9123C15.5496 20.9477 15.5605 20.9819 15.578 21.0127C15.57 21.0794 15.57 21.1468 15.578 21.2135C15.578 21.2476 15.596 21.2637 15.596 21.2978V21.3982C15.596 21.4324 15.628 21.4484 15.628 21.4826C15.6427 21.5202 15.6489 21.5607 15.646 21.601C15.662 21.6673 15.662 21.7356 15.68 21.8199C15.696 21.852 15.712 21.9022 15.73 21.9363C15.7537 22.08 15.7926 22.2207 15.846 22.356C15.864 22.4243 15.946 22.4584 15.964 22.5247C15.98 22.5588 15.964 22.5929 15.98 22.6251C15.996 22.6572 16.08 22.7094 16.08 22.7596C16.214 22.7937 16.248 22.9443 16.366 22.9784C16.382 22.9945 16.416 22.9784 16.448 22.9784C16.48 22.9784 16.516 23.0286 16.55 23.0286H16.7C16.734 23.0126 16.766 22.9784 16.8 22.9624C16.834 22.9463 16.868 22.9624 16.884 22.9443C16.968 22.9283 17.018 22.86 17.084 22.86C17.168 22.7435 17.336 22.6933 17.42 22.5588C17.454 22.5086 17.454 22.4243 17.486 22.3741C17.518 22.3239 17.588 22.3239 17.604 22.2737C17.6178 22.1786 17.6231 22.0825 17.62 21.9865C17.604 21.8701 17.52 21.7516 17.52 21.6512C17.504 21.601 17.536 21.5328 17.536 21.4826C17.5161 21.3579 17.4887 21.2345 17.454 21.1131C17.4578 21.0847 17.4632 21.0566 17.47 21.0288C17.47 20.9966 17.436 20.9625 17.436 20.9444V20.844C17.418 20.6579 17.39 20.4729 17.352 20.2899C17.352 20.2557 17.37 20.2236 17.37 20.1895C17.3533 20.1148 17.3306 20.0416 17.302 19.9706C17.319 19.8427 17.319 19.713 17.302 19.5851C17.2795 19.4972 17.2687 19.4067 17.27 19.316C17.27 19.2658 17.286 19.2317 17.286 19.1815C17.286 19.1313 17.236 19.0972 17.236 19.063C17.236 19.0289 17.27 18.9787 17.27 18.9285C17.27 18.8783 17.252 18.8783 17.252 18.8442C17.2539 18.7822 17.2485 18.7202 17.236 18.6595C17.2161 18.606 17.2046 18.5498 17.202 18.4928C17.202 18.4426 17.236 18.3904 17.218 18.3402C17.2019 18.2692 17.1741 18.2014 17.136 18.1394C17.068 18.0551 17.052 17.9386 16.918 17.9205C16.8863 17.8878 16.8629 17.8479 16.85 17.8041C16.75 17.7699 16.734 17.6515 16.634 17.6173C16.6 17.4507 16.382 17.3824 16.248 17.2981C16.198 17.282 16.148 17.2158 16.098 17.2158C15.998 17.1977 15.946 17.282 15.88 17.2981C15.864 17.3844 15.812 17.4346 15.796 17.519Z" fill="#D9D9D9"/>
<path d="M20.13 20.9464C20.148 20.8802 20.098 20.7958 20.114 20.7296C20.13 20.6633 20.148 20.6453 20.148 20.6111C20.148 20.577 20.13 20.5449 20.13 20.5107C20.1379 20.4017 20.1608 20.2942 20.198 20.1915C20.2225 20.0957 20.2405 19.9985 20.252 19.9003C20.252 19.8662 20.236 19.832 20.236 19.7979C20.236 19.7638 20.302 19.6975 20.318 19.6473C20.334 19.5971 20.302 19.5811 20.318 19.5469C20.334 19.5128 20.352 19.4626 20.37 19.3963C20.3675 19.3562 20.3729 19.3159 20.386 19.2779C20.402 19.2277 20.436 19.1775 20.452 19.1273C20.468 19.0771 20.452 19.0429 20.47 18.9747C20.486 18.9426 20.52 18.9245 20.52 18.8903V18.808C20.536 18.7739 20.586 18.7398 20.604 18.7056C20.6224 18.6402 20.6332 18.5728 20.636 18.5048C20.6592 18.4242 20.6994 18.3495 20.754 18.286C20.788 18.1856 20.804 18.0671 20.838 17.9667C20.938 17.9326 20.954 17.8322 21.006 17.7318C21.058 17.6314 21.088 17.6133 21.088 17.531C21.1332 17.4544 21.184 17.3812 21.24 17.3121C21.256 17.278 21.256 17.2439 21.272 17.2117C21.288 17.1796 21.34 17.1615 21.356 17.1435C21.401 17.0667 21.4518 16.9935 21.508 16.9246C21.558 16.8583 21.624 16.8242 21.674 16.758C21.692 16.7238 21.692 16.6897 21.708 16.6555C21.7732 16.5908 21.8465 16.5348 21.926 16.4889C21.976 16.4206 21.992 16.3363 22.042 16.2881C22.1093 16.2399 22.1826 16.2007 22.26 16.1716C22.31 16.1375 22.344 16.0713 22.394 16.0371C22.4287 16.0243 22.4583 16.0003 22.478 15.9689L22.652 15.8845C22.7045 15.8542 22.7546 15.8199 22.802 15.7821C22.8215 15.7693 22.8448 15.7637 22.868 15.7661C22.902 15.75 22.936 15.6978 22.97 15.6978C23.0349 15.6745 23.1019 15.6577 23.17 15.6476C23.22 15.6315 23.254 15.5653 23.32 15.5472C23.386 15.5291 23.472 15.5974 23.538 15.5311C23.722 15.5813 23.906 15.4809 24.09 15.5311C24.124 15.5311 24.158 15.5653 24.174 15.5653C24.2584 15.5672 24.3428 15.5612 24.426 15.5472C24.4673 15.557 24.5065 15.574 24.542 15.5974C24.576 15.5974 24.626 15.5974 24.642 15.6155C24.694 15.6315 24.726 15.6817 24.776 15.7159C24.8139 15.729 24.854 15.7345 24.894 15.7319C24.9732 15.7727 25.0465 15.824 25.112 15.8845C25.146 15.9006 25.178 15.9508 25.212 15.9849C25.246 16.019 25.312 16.0351 25.33 16.0692C25.348 16.1034 25.362 16.1516 25.38 16.1857C25.412 16.254 25.464 16.2861 25.496 16.3704C25.528 16.4548 25.546 16.523 25.564 16.6054C25.5772 16.6551 25.5826 16.7066 25.58 16.758C25.6107 16.8554 25.6162 16.959 25.596 17.0591C25.5909 17.0999 25.5801 17.1398 25.564 17.1776V17.3121C25.5237 17.3873 25.4902 17.4659 25.464 17.5471C25.446 17.5973 25.464 17.6475 25.446 17.6816C25.43 17.7659 25.362 17.8161 25.33 17.9005C25.298 17.9848 25.312 18.0169 25.296 18.0671C25.28 18.1173 25.228 18.1193 25.212 18.1514C25.1925 18.1834 25.1758 18.217 25.162 18.2518C25.1558 18.285 25.1381 18.3149 25.112 18.3362V18.4386C25.094 18.4707 25.028 18.4888 24.994 18.539C24.9749 18.5852 24.9529 18.6301 24.928 18.6735C24.91 18.7056 24.878 18.7237 24.844 18.7578C24.81 18.792 24.828 18.8241 24.81 18.8582C24.7625 18.9465 24.7002 19.0259 24.626 19.0931C24.6125 19.1636 24.5775 19.2281 24.526 19.2779C24.492 19.312 24.442 19.312 24.426 19.3622C24.408 19.3783 24.408 19.4124 24.392 19.4465C24.326 19.5289 24.208 19.6313 24.14 19.7317C24.108 19.7658 24.108 19.7979 24.074 19.8321C24.04 19.8662 23.974 19.8822 23.94 19.9505C23.8914 20.0115 23.8517 20.0791 23.822 20.1513C23.772 20.2356 23.756 20.2517 23.672 20.2698C23.606 20.32 23.588 20.3862 23.538 20.4364C23.454 20.5388 23.338 20.571 23.288 20.7055C23.2308 20.7358 23.1794 20.7759 23.136 20.824C23.12 20.84 23.104 20.8902 23.086 20.9083L22.986 21.0087C22.9506 21.042 22.9109 21.0704 22.868 21.093C22.8555 21.1274 22.8324 21.157 22.802 21.1773C22.734 21.2436 22.652 21.2777 22.602 21.3621C22.568 21.3781 22.568 21.4123 22.55 21.4444C22.468 21.5287 22.316 21.5287 22.284 21.6633C22.1959 21.719 22.1118 21.7808 22.032 21.848C21.998 21.8661 21.982 21.9163 21.948 21.9163C21.914 21.9163 21.882 21.9323 21.864 21.9504C21.714 22.0327 21.748 22.2014 21.78 22.3861C21.8001 22.4374 21.8228 22.4877 21.848 22.5367C21.892 22.6136 21.9422 22.6868 21.998 22.7556C22.0164 22.7822 22.0395 22.8053 22.066 22.8238C22.0965 22.8607 22.1246 22.8996 22.15 22.9403C22.2193 22.9885 22.3 23.0176 22.384 23.0246C22.416 23.0407 22.468 23.0246 22.5 23.0246C22.5312 23.0431 22.566 23.0548 22.602 23.0588C22.6579 23.0616 22.714 23.0555 22.768 23.0407C22.802 23.0246 22.818 22.9905 22.852 22.9744C22.886 22.9584 22.886 22.9584 22.92 22.9403C22.954 22.9222 23.02 22.8399 23.07 22.8058C23.086 22.7897 23.136 22.7736 23.154 22.7556C23.214 22.6927 23.2695 22.6256 23.32 22.5548C23.338 22.5046 23.372 22.5046 23.404 22.4704C23.4168 22.4356 23.4407 22.4059 23.472 22.3861C23.488 22.352 23.522 22.3359 23.538 22.3198C23.554 22.3038 23.538 22.2516 23.556 22.2355C23.574 22.2194 23.622 22.1853 23.656 22.1512C23.69 22.117 23.672 22.101 23.69 22.0829C23.708 22.0648 23.74 22.0508 23.756 22.0327C23.7854 21.9861 23.8077 21.9354 23.822 21.8821C23.8543 21.8401 23.8824 21.7951 23.906 21.7476C23.924 21.7135 23.956 21.6974 23.974 21.6633C23.992 21.6291 23.99 21.6131 24.006 21.597C24.04 21.5468 24.09 21.5127 24.108 21.4785C24.126 21.4444 24.124 21.4123 24.14 21.3942C24.158 21.344 24.208 21.3279 24.224 21.2938C24.24 21.2597 24.242 21.2095 24.258 21.1773C24.274 21.1091 24.342 21.0749 24.392 21.0087C24.4033 20.9821 24.4088 20.9533 24.408 20.9244C24.426 20.8902 24.476 20.8581 24.492 20.824C24.5271 20.7436 24.5665 20.6652 24.61 20.589C24.7002 20.5353 24.8073 20.5174 24.91 20.5388C24.944 20.5549 24.96 20.6051 24.994 20.6392C25.1511 20.7559 25.3192 20.8568 25.496 20.9404C25.5896 20.9943 25.6745 21.0619 25.748 21.1412C25.882 21.1412 25.898 21.342 25.864 21.4765C25.864 21.5107 25.832 21.5448 25.814 21.5769C25.8167 21.6008 25.811 21.625 25.798 21.6452C25.7505 21.7729 25.683 21.8922 25.598 21.9986C25.582 22.099 25.498 22.1652 25.448 22.2496C25.4503 22.2735 25.4447 22.2975 25.432 22.3178C25.4083 22.3547 25.3801 22.3885 25.348 22.4182C25.332 22.4343 25.332 22.4845 25.314 22.5026C25.296 22.5206 25.264 22.5528 25.23 22.5869C25.2342 22.6154 25.2285 22.6444 25.214 22.6692C25.198 22.7034 25.164 22.7194 25.148 22.7375C25.132 22.7556 25.114 22.8218 25.096 22.8539L25.014 22.9383C24.996 22.9724 24.98 23.0065 24.962 23.0387C24.944 23.0708 24.896 23.0909 24.88 23.123C24.83 23.1732 24.796 23.2575 24.746 23.3077C24.696 23.3579 24.662 23.4603 24.612 23.4925C24.562 23.5246 24.512 23.5447 24.478 23.5949C24.444 23.6451 24.444 23.6772 24.428 23.7113L24.328 23.7615C24.26 23.8298 24.226 23.9462 24.16 23.9804C24.126 23.9964 24.076 23.9964 24.042 24.0145C23.958 24.0486 23.926 24.1651 23.842 24.2334C23.824 24.2494 23.792 24.2494 23.758 24.2655C23.724 24.2816 23.724 24.3157 23.708 24.3157H23.624C23.54 24.3338 23.49 24.4342 23.406 24.4683C23.356 24.4844 23.29 24.4683 23.24 24.4844C23.19 24.5004 23.138 24.5526 23.088 24.5687C23.038 24.5848 23.004 24.5687 22.954 24.5848C22.904 24.6008 22.854 24.6189 22.804 24.6189H22.686C22.654 24.6189 22.604 24.653 22.57 24.653C22.536 24.653 22.486 24.6189 22.452 24.6189C22.418 24.6189 22.368 24.635 22.336 24.635C22.304 24.635 22.286 24.6028 22.252 24.6028C22.134 24.5687 21.968 24.5687 21.866 24.5346C21.8252 24.5164 21.7864 24.4942 21.75 24.4683C21.7 24.4502 21.65 24.4502 21.616 24.4342C21.582 24.4181 21.566 24.4 21.532 24.384C21.498 24.3679 21.464 24.3498 21.448 24.3338C21.432 24.3177 21.398 24.2836 21.364 24.2655C21.33 24.2474 21.28 24.2494 21.264 24.2334C21.146 24.1812 21.08 24.0486 20.962 23.9643C20.9031 23.9175 20.8476 23.8665 20.796 23.8117C20.7474 23.7507 20.7077 23.6831 20.678 23.6109L20.578 23.4603C20.5544 23.402 20.5264 23.3456 20.494 23.2917C20.478 23.2756 20.478 23.2415 20.46 23.2254C20.442 23.2093 20.41 23.1571 20.394 23.123V23.0065C20.378 22.9563 20.344 22.9383 20.326 22.8881C20.308 22.8379 20.31 22.7536 20.294 22.6873C20.2715 22.6442 20.2432 22.6043 20.21 22.5688C20.2126 22.5181 20.2072 22.4673 20.194 22.4182C20.1721 22.3526 20.1548 22.2855 20.142 22.2174C20.16 22.1672 20.194 22.1512 20.194 22.117C20.194 22.0829 20.11 22.0327 20.11 22.0006C20.11 21.9685 20.126 21.9163 20.126 21.8821C20.1286 21.8035 20.1233 21.7248 20.11 21.6472C20.0851 21.5826 20.0683 21.5152 20.06 21.4464C20.0665 21.3499 20.0833 21.2543 20.11 21.1613C20.03 21.081 20.114 21.0147 20.13 20.9464ZM23.344 18.2077C23.378 18.1575 23.378 18.0912 23.412 18.0229C23.444 17.9908 23.478 17.9727 23.512 17.9386C23.5603 17.8966 23.5997 17.8455 23.628 17.788C23.667 17.6956 23.7118 17.6057 23.762 17.519C23.78 17.4688 23.83 17.4527 23.846 17.4025C23.8591 17.3564 23.8758 17.3114 23.896 17.268C23.896 17.2499 23.964 17.1997 23.964 17.1676C23.964 17.0993 23.796 17.1154 23.73 17.1154C23.6133 17.1473 23.5006 17.1924 23.394 17.2499C23.378 17.268 23.344 17.268 23.31 17.284C23.2448 17.3473 23.1834 17.4144 23.126 17.4848C23.0673 17.5186 23.0118 17.5576 22.96 17.6013C22.942 17.6173 22.96 17.6515 22.942 17.6695C22.892 17.7519 22.792 17.7699 22.758 17.8362C22.7378 17.8621 22.721 17.8904 22.708 17.9205C22.692 17.9547 22.642 17.9888 22.642 18.0209C22.642 18.0531 22.624 18.0711 22.608 18.1053C22.574 18.1735 22.49 18.2237 22.458 18.306C22.4607 18.3296 22.4543 18.3534 22.44 18.3723C22.424 18.4064 22.39 18.4225 22.39 18.4566C22.39 18.4908 22.39 18.5068 22.374 18.5229C22.358 18.539 22.324 18.5731 22.306 18.6072C22.288 18.6414 22.29 18.6574 22.274 18.6916C22.258 18.7257 22.222 18.7418 22.206 18.7759C22.172 18.8602 22.19 18.9606 22.156 19.045C22.14 19.0791 22.106 19.0952 22.088 19.1293C22.0446 19.1884 22.0164 19.2574 22.006 19.3301C21.988 19.3642 22.006 19.4144 21.988 19.4485C21.972 19.5309 21.904 19.5831 21.888 19.6654C21.8774 19.6939 21.8749 19.7248 21.881 19.7546C21.887 19.7844 21.9012 19.812 21.922 19.8341C21.972 19.8341 22.006 19.7497 22.038 19.7176C22.07 19.6855 22.088 19.6995 22.122 19.6835C22.1404 19.6568 22.1635 19.6337 22.19 19.6152C22.2247 19.5621 22.2635 19.5117 22.306 19.4646C22.3792 19.3837 22.4411 19.2932 22.49 19.1955C22.5103 19.1828 22.5342 19.1771 22.558 19.1795C22.608 19.0791 22.724 19.0269 22.776 18.9446C22.7984 18.9021 22.8152 18.8569 22.826 18.81C22.876 18.7759 22.91 18.7418 22.96 18.7076C22.976 18.6755 22.96 18.6414 22.976 18.6253C22.9985 18.6033 23.0286 18.5911 23.06 18.5912C23.1252 18.5237 23.1762 18.4439 23.21 18.3562C23.2502 18.3029 23.2951 18.2532 23.344 18.2077Z" fill="#D9D9D9"/>
<path d="M31.812 19.8541C31.812 19.8722 31.796 19.9063 31.796 19.9385V20.1011C31.796 20.2517 31.746 20.4043 31.746 20.5549C31.746 20.6392 31.762 20.7236 31.762 20.8059C31.762 20.84 31.73 20.8741 31.73 20.9083C31.7323 21.0705 31.7263 21.2326 31.712 21.3942C31.7089 21.4306 31.6973 21.4657 31.678 21.4966C31.678 21.5287 31.696 21.5789 31.696 21.6311C31.6907 21.7321 31.6793 21.8327 31.662 21.9323C31.67 22.0104 31.67 22.0891 31.662 22.1672C31.662 22.2355 31.628 22.3018 31.628 22.3861V22.4865C31.628 22.5367 31.612 22.5889 31.612 22.621C31.612 22.6531 31.628 22.7054 31.628 22.7395C31.628 22.7736 31.596 22.8238 31.596 22.856C31.596 22.8881 31.612 22.9403 31.612 22.9905C31.612 23.0407 31.596 23.0929 31.596 23.125C31.578 23.1933 31.612 23.2595 31.612 23.3258C31.612 23.3579 31.578 23.3921 31.578 23.4423C31.562 23.5266 31.578 23.627 31.562 23.7294C31.562 23.7957 31.544 23.88 31.544 23.9462C31.512 24.1651 31.444 24.2334 31.21 24.2494C31.1375 24.2574 31.0644 24.2574 30.992 24.2494C30.96 24.2494 30.942 24.2153 30.908 24.2153C30.8565 24.219 30.806 24.2305 30.758 24.2494C30.7006 24.2377 30.6444 24.2209 30.59 24.1992C30.558 24.1992 30.524 24.2153 30.474 24.2153C30.4022 24.2014 30.329 24.196 30.256 24.1992C30.172 24.1992 30.088 24.1651 30.038 24.1651C29.954 24.1651 29.904 24.2153 29.822 24.2494C29.7765 24.2574 29.7317 24.2688 29.688 24.2836C29.62 24.2996 29.554 24.384 29.47 24.4181C29.42 24.4342 29.352 24.4502 29.286 24.4683C29.2279 24.492 29.1717 24.5202 29.118 24.5526C29.0503 24.5555 28.9832 24.5662 28.918 24.5848C28.8838 24.6117 28.8431 24.6291 28.8 24.6349C28.734 24.653 28.666 24.6189 28.6 24.6189C28.5108 24.627 28.4211 24.627 28.332 24.6189C28.2939 24.5993 28.2545 24.5825 28.214 24.5687C28.198 24.5526 28.164 24.5687 28.148 24.5526C28.1176 24.5394 28.0893 24.5218 28.064 24.5004C28.0298 24.5031 27.9956 24.4976 27.964 24.4844C27.914 24.4683 27.88 24.4181 27.846 24.4C27.812 24.382 27.746 24.384 27.712 24.3679C27.678 24.3518 27.662 24.2655 27.612 24.2153C27.596 24.1992 27.544 24.1812 27.528 24.1651C27.512 24.149 27.494 24.0988 27.462 24.0808C27.4074 24.0537 27.3563 24.02 27.31 23.9804C27.2901 23.9543 27.2733 23.926 27.26 23.896C27.244 23.88 27.21 23.8619 27.21 23.8298C27.176 23.7957 27.176 23.7615 27.16 23.7294C27.144 23.6973 27.076 23.6611 27.06 23.6109C27.044 23.5607 27.06 23.5266 27.042 23.5105C27.026 23.4603 26.96 23.4764 26.942 23.4423C26.942 23.3419 26.858 23.2756 26.842 23.2073C26.826 23.1732 26.842 23.1411 26.826 23.123C26.808 23.0567 26.724 23.0065 26.708 22.9563C26.692 22.9061 26.692 22.8539 26.674 22.8037C26.656 22.7535 26.608 22.7034 26.59 22.6371C26.5769 22.5991 26.5714 22.5588 26.574 22.5186C26.558 22.4524 26.54 22.4343 26.524 22.35C26.4966 22.2847 26.4739 22.2176 26.456 22.1492C26.456 22.115 26.474 22.0648 26.474 22.0307C26.474 21.9644 26.406 21.8962 26.39 21.8138C26.374 21.7315 26.39 21.5769 26.374 21.4765C26.3548 21.4463 26.3431 21.4119 26.34 21.3761C26.34 21.342 26.356 21.3099 26.356 21.2757C26.3501 21.2325 26.3329 21.1916 26.306 21.1573C26.315 21.096 26.315 21.0338 26.306 20.9725C26.306 20.9063 26.272 20.8219 26.272 20.7537C26.272 20.7216 26.306 20.6714 26.29 20.6372C26.274 20.6031 26.272 20.569 26.272 20.5368C26.272 20.5047 26.306 20.4686 26.306 20.4184C26.306 20.3682 26.29 20.2999 26.29 20.2336C26.2925 20.1543 26.3039 20.0755 26.324 19.9987C26.3265 19.9648 26.3318 19.9313 26.34 19.8983C26.34 19.8461 26.324 19.814 26.324 19.7638C26.3283 19.7065 26.3391 19.65 26.356 19.5951C26.374 19.561 26.356 19.5269 26.374 19.4767C26.392 19.4265 26.406 19.3602 26.424 19.2919C26.4207 19.2246 26.4261 19.1571 26.44 19.0911C26.456 19.057 26.508 19.0229 26.524 18.9727C26.54 18.9225 26.508 18.8723 26.508 18.8221C26.5149 18.7665 26.5378 18.7141 26.574 18.6715C26.608 18.6373 26.658 18.6213 26.658 18.5871C26.692 18.5028 26.658 18.4185 26.674 18.3522C26.69 18.286 26.758 18.2498 26.774 18.1996C26.79 18.1494 26.792 18.1173 26.808 18.0992C26.826 18.049 26.892 18.0149 26.908 17.9647C26.924 17.9145 26.908 17.8804 26.926 17.8482C26.942 17.78 27.026 17.7298 27.06 17.6956C27.076 17.5952 27.144 17.5451 27.194 17.4607C27.2229 17.4077 27.2563 17.3573 27.294 17.3101C27.31 17.2921 27.344 17.276 27.36 17.2599C27.4124 17.2287 27.4537 17.1816 27.478 17.1254C27.494 17.1073 27.494 17.0752 27.512 17.0571C27.562 16.9567 27.678 16.8905 27.746 16.7881C27.88 16.772 27.93 16.6214 28.014 16.5371L28.114 16.4869C28.1569 16.4438 28.2078 16.4096 28.264 16.3865C28.364 16.3182 28.448 16.2339 28.532 16.1857C28.5949 16.1754 28.6566 16.1586 28.716 16.1355C28.784 16.1014 28.85 16.017 28.916 16.001C28.948 15.9849 28.998 15.9849 29.032 15.9668C29.066 15.9488 29.1 15.9166 29.132 15.9006C29.164 15.8845 29.2 15.9166 29.25 15.9166C29.3 15.9166 29.316 15.8162 29.384 15.8002H29.484C29.534 15.7821 29.568 15.75 29.602 15.75H29.702C29.786 15.75 29.886 15.7159 29.952 15.7159C30.018 15.7159 30.036 15.75 30.086 15.75C30.136 15.75 30.154 15.7319 30.188 15.7319C30.222 15.7319 30.254 15.766 30.288 15.7821C30.3156 15.7751 30.3437 15.7697 30.372 15.766C30.422 15.766 30.538 15.8002 30.622 15.8002C30.656 15.8002 30.69 15.7821 30.722 15.7821C30.754 15.7821 30.79 15.8162 30.824 15.8162C30.89 15.8162 30.958 15.7821 31.024 15.8002C31.0702 15.803 31.1155 15.8139 31.158 15.8323C31.308 15.8664 31.526 15.8323 31.694 15.8664C31.7728 15.8789 31.8509 15.8957 31.928 15.9166C31.9856 15.9643 32.0269 16.0289 32.046 16.1014C32.0569 16.1528 32.0506 16.2065 32.028 16.254C32.0323 16.2818 32.0383 16.3093 32.046 16.3363C32.0217 16.4136 32.0044 16.4929 31.994 16.5732C31.994 16.6053 32.012 16.6395 32.012 16.6736C32.028 16.8744 31.962 17.0752 31.962 17.276C31.965 17.3774 31.9589 17.4789 31.944 17.5792C31.944 17.6113 31.928 17.6454 31.928 17.6635C31.912 17.7639 31.944 17.8643 31.928 17.9486C31.928 17.9828 31.894 18.0149 31.894 18.0651C31.9014 18.0929 31.9074 18.121 31.912 18.1494C31.912 18.1836 31.878 18.2177 31.878 18.2498C31.878 18.2819 31.894 18.3181 31.894 18.3522C31.894 18.4366 31.86 18.5189 31.86 18.6213C31.874 18.7271 31.88 18.8338 31.878 18.9405C31.878 19.0409 31.794 19.1915 31.86 19.3421C31.816 19.509 31.7998 19.682 31.812 19.8541ZM29.922 22.3419C29.938 22.3259 29.938 22.2757 29.972 22.2415C30.006 22.2074 30.038 22.2074 30.038 22.1733C30.038 22.1391 30.022 22.1231 30.022 22.0889C30.0425 22.0357 30.054 21.9793 30.056 21.9223V21.7536C30.0801 21.6888 30.0969 21.6214 30.106 21.5528C30.106 21.5187 30.088 21.4685 30.088 21.4183C30.0844 21.3508 30.0905 21.2832 30.106 21.2175C30.106 21.1673 30.14 21.1171 30.14 21.0669C30.1264 20.9442 30.1204 20.8209 30.122 20.6975C30.122 20.6473 30.14 20.6292 30.14 20.5971C30.1688 20.4192 30.1742 20.2382 30.156 20.0589C30.172 19.9746 30.24 19.9084 30.24 19.8401C30.24 19.8059 30.206 19.7738 30.206 19.7397C30.192 19.6792 30.1866 19.617 30.19 19.555C30.2161 19.5085 30.2331 19.4573 30.24 19.4044C30.24 19.3702 30.206 19.32 30.206 19.2859C30.206 19.2518 30.222 19.2176 30.222 19.1855C30.231 19.135 30.231 19.0834 30.222 19.0329C30.222 18.9666 30.29 18.8823 30.29 18.798C30.29 18.7659 30.256 18.7317 30.256 18.6976C30.256 18.6635 30.29 18.6313 30.29 18.5972C30.29 18.5631 30.272 18.5289 30.272 18.4968C30.272 18.4647 30.306 18.4125 30.306 18.3783C30.306 18.3442 30.272 18.3121 30.272 18.2779C30.272 18.2438 30.306 18.1775 30.306 18.1273C30.315 18.0486 30.315 17.9691 30.306 17.8904C30.3278 17.8555 30.3396 17.8152 30.34 17.774C30.356 17.6053 30.256 17.539 30.172 17.4547C30.1468 17.413 30.1088 17.3807 30.0637 17.3626C30.0186 17.3445 29.9689 17.3416 29.922 17.3543C29.7948 17.3771 29.6712 17.4163 29.554 17.4708C29.5119 17.5008 29.4724 17.5344 29.436 17.5712C29.402 17.5892 29.37 17.5892 29.352 17.6053C29.268 17.6555 29.218 17.7398 29.118 17.7238C28.9436 17.8669 28.781 18.024 28.632 18.1936C28.5825 18.2458 28.5377 18.3022 28.498 18.3623C28.466 18.4125 28.448 18.4787 28.416 18.5289C28.398 18.547 28.348 18.5791 28.332 18.6133C28.316 18.6474 28.332 18.6815 28.314 18.7136C28.282 18.7819 28.232 18.8482 28.198 18.9325C28.18 18.9506 28.18 18.9827 28.164 19.0329C28.148 19.0831 28.114 19.1172 28.098 19.1514C28.082 19.1855 28.08 19.2357 28.08 19.2859C28.0566 19.3222 28.0397 19.3623 28.03 19.4044C28.014 19.4365 28.03 19.4706 28.03 19.5048C28.0089 19.5279 27.9969 19.5578 27.996 19.5891C27.9826 19.6497 27.9773 19.7118 27.98 19.7738C27.964 19.8742 27.93 19.9585 27.914 20.0429C27.896 20.1593 27.93 20.2778 27.914 20.4123C27.914 20.4625 27.88 20.4947 27.88 20.5469C27.879 20.7381 27.8958 20.929 27.93 21.1171V21.2356C27.93 21.2677 27.964 21.3199 27.964 21.352C27.9818 21.4637 27.9925 21.5763 27.996 21.6894C28.048 21.9062 28.18 22.1251 28.18 22.36C28.2209 22.4295 28.2551 22.5028 28.282 22.5789C28.298 22.613 28.314 22.613 28.332 22.6471C28.3442 22.677 28.3611 22.7048 28.382 22.7295C28.416 22.7817 28.466 22.8138 28.498 22.864C28.516 22.8821 28.516 22.9322 28.532 22.9483C28.5785 22.9781 28.629 23.0011 28.682 23.0166C28.7518 23.0046 28.8193 22.9816 28.882 22.9483C28.9274 22.9309 28.9674 22.9019 28.998 22.864C29.032 22.8479 29.082 22.8319 29.116 22.8138C29.1621 22.7749 29.2124 22.7412 29.266 22.7134C29.3348 22.6984 29.4018 22.6762 29.466 22.6471C29.516 22.5287 29.6 22.4945 29.7 22.4283C29.7775 22.4097 29.8522 22.3806 29.922 22.3419Z" fill="#D9D9D9"/>
</svg>
